<?xml version="1.0" encoding="UTF-8" standalone="no"?>
<svg
   xmlns:dc="http://purl.org/dc/elements/1.1/"
   xmlns:cc="http://creativecommons.org/ns#"
   xmlns:rdf="http://www.w3.org/1999/02/22-rdf-syntax-ns#"
   xmlns:svg="http://www.w3.org/2000/svg"
   xmlns="http://www.w3.org/2000/svg"
   id="svg102"
   version="1.1"
   viewBox="0 0 342.27 90.5">
  <metadata
     id="metadata108">
    <rdf:RDF>
      <cc:Work
         rdf:about="">
        <dc:format>image/svg+xml</dc:format>
        <dc:type
           rdf:resource="http://purl.org/dc/dcmitype/StillImage" />
        <dc:title>keychain_d</dc:title>
      </cc:Work>
    </rdf:RDF>
  </metadata>
  <defs
     id="defs106" />
  <title
     id="title2">keychain_d</title>
  <g
     id="g100">
    <path
       id="path4"
       style="fill: none;stroke: #f0f;stroke-miterlimit: 10;stroke-width: 0.5px"
       transform="translate(0.21 0.25)"
       d="M146.31,71V65.85c0-.7.11-1,.9-1,1.4.07,2.8,0,4.2,0A3.63,3.63,0,0,1,155,67.3a3.52,3.52,0,0,1-1.2,4.28c-.55.4-.39.76-.15,1.21.64,1.2,1.24,2.41,1.89,3.61.28.52.16.73-.43.71a15.51,15.51,0,0,0-1.67,0,1.06,1.06,0,0,1-1.2-.74c-.51-1.12-1.1-2.22-1.63-3.34a.85.85,0,0,0-1-.6c-.58.1-.46.56-.47.94v2.88c0,.7-.21.87-.89.87-2,0-2,0-1.95-2Z" />
    <path
       id="path6"
       style="fill: none;stroke: #f0f;stroke-miterlimit: 10;stroke-width: 0.5px"
       transform="translate(0.21 0.25)"
       d="M150.36,67.47c-.86-.18-1.33.12-1.25,1.25.1,1.3.31,1.55,2.25,1.46.78,0,.89-.77.92-1.42.05-1.36-.87-1.33-1.92-1.32Z" />
    <path
       id="path8"
       style="fill: none;stroke: orange;stroke-miterlimit: 10;stroke-width: 0.5px"
       transform="translate(0.21 0.25)"
       d="M147.84,0h-126a18,18,0,0,0-18,18V38.4A10.79,10.79,0,0,0,2.61,53.61a11.9,11.9,0,0,0,1.23,1.23V72a18,18,0,0,0,18,18h126a18,18,0,0,0,18-18V18A18,18,0,0,0,147.84,0Z" />
    <circle
       id="circle10"
       style="fill: none;stroke: orange;stroke-miterlimit: 10;stroke-width: 0.5px"
       r="4.5"
       cy="46.87"
       cx="12.05" />
    <path
       id="path12"
       style="fill: none;stroke: #f0f;stroke-miterlimit: 10;stroke-width: 0.5px"
       transform="translate(0.21 0.25)"
       d="M136.4,26.46v4.71c0,7.47,0,14.95.07,22.42,0,.7-.3.9-.9,1-2.48.28-2.55.22-2.55-2.26V17.43c0-1.13.31-1.54,1.41-1.38a3.91,3.91,0,0,0,1.08,0c.8-.11,1.11.29,1.35,1q2.16,6.54,4.39,13c1,2.78,2,5.54,3,8.41a9,9,0,0,0,1-2.49c2.15-6.18,4.29-12.37,6.36-18.59.35-1,.77-1.45,1.91-1.4,2.37.12,2.06-.21,2.06,2.06V53.18c0,1.07-.31,1.37-1.36,1.33-2.06-.08-2.07,0-2.06-2.13,0-8.75-.13-17.5.16-26.41a4,4,0,0,0-.94,1.76c-.77,2.77-1.94,5.41-2.78,8.16-.93,3-2.07,5.92-3.13,8.87-.21.58-.26,1.23-1.2,1.2s-.92-.64-1.11-1.17l-6-16.93A3.75,3.75,0,0,0,136.4,26.46Z" />
    <path
       id="path14"
       style="fill: none;stroke: #f0f;stroke-miterlimit: 10;stroke-width: 0.5px"
       transform="translate(0.21 0.25)"
       d="M23.58,35.21v-18c0-1,.18-1.36,1.24-1.31,2.95.15,5.92-.18,8.87.19,4.57.58,6.93,2.94,7.53,7.48a12.32,12.32,0,0,1-.78,6.71,15.12,15.12,0,0,1-1,1.65c-.35.56-1.25.65-1,1.29.11.35,1,.43,1.43.7A8.34,8.34,0,0,1,44.17,40a21.43,21.43,0,0,1-.23,8.1,8.15,8.15,0,0,1-7.32,6.13c-4.1.49-8.23.14-12.34.25-.9,0-.77-.62-.77-1.17V35.21Z" />
    <path
       id="path16"
       style="fill: none;stroke: #f0f;stroke-miterlimit: 10;stroke-width: 0.5px"
       transform="translate(0.21 0.25)"
       d="M26.86,43.39v7c0,.42-.14.91.6.89,3-.08,6.08.2,9.09-.32,2.77-.48,4-1.82,4.36-4.61a21.74,21.74,0,0,0,.15-4.19c-.22-3.57-1.48-5.5-5.4-6.14-2.74-.45-5.51-.16-8.26-.24-.66,0-.53.45-.53.83C26.86,38.87,26.85,41.13,26.86,43.39Z" />
    <path
       id="path18"
       style="fill: none;stroke: #f0f;stroke-miterlimit: 10;stroke-width: 0.5px"
       transform="translate(0.21 0.25)"
       d="M26.91,25.76v5.87c0,.52.07.78.7.79a23.66,23.66,0,0,0,7.12-.54,4.27,4.27,0,0,0,2.9-2.69,13.29,13.29,0,0,0,.31-5.68,4.63,4.63,0,0,0-4.19-4.26A43,43,0,0,0,27.53,19c-.7,0-.62.44-.62.88Z" />
    <path
       id="path20"
       style="fill: #f0f;stroke: #f0f;stroke-miterlimit: 10;stroke-width: 0.5px"
       transform="translate(0.21 0.25)"
       d="M70.49,54.51H53.7c-1,0-1.31-.31-1.29-1.3.05-2.84.06-5.68,0-8.52,0-1.09.28-1.5,1.43-1.4,3.38.3,6.78.43,10.15.76,5.47.52,11,.62,16.43,1.2,2.22.24,4.43.43,6.65.55.5,0,.5.44.55.78.33,2.25.62,4.51,1,6.75.15.93-.17,1.18-1.07,1.17C81.85,54.49,76.17,54.51,70.49,54.51Z" />
    <path
       id="path22"
       style="fill: none;stroke: #f0f;stroke-miterlimit: 10;stroke-width: 0.5px"
       transform="translate(0.21 0.25)"
       d="M108.78,45.29H104.1c-.7,0-1,.23-1.13.9-.57,2.37-1.25,4.71-1.79,7.09-.22,1-.58,1.3-1.6,1.26-2.21-.1-2.32.31-1.66-2.22,2.21-8.51,4.37-17,6.56-25.55.84-3.28,1.71-6.56,2.52-9.85a1,1,0,0,1,1.09-.9h.06c2.45,0,2.45-.06,3,2.29q1.36,5.36,2.74,10.69,1.56,6,3.11,12.11c1,4,2.07,8.11,3.14,12.15.27,1,0,1.28-1,1.26-2.22,0-2.23,0-2.8-2.15s-1.11-4.09-1.6-6.15a1,1,0,0,0-1-1,1.2,1.2,0,0,0-.2,0C112,45.33,110.38,45.29,108.78,45.29Z" />
    <path
       id="path24"
       style="fill: none;stroke: #f0f;stroke-miterlimit: 10;stroke-width: 0.5px"
       transform="translate(0.21 0.25)"
       d="M109,22c-.76,3.22-1.66,6.08-2.24,9-.67,3.4-1.6,6.75-2.46,10.12-.18.72-.12,1,.72,1,2.55,0,5.11-.06,7.66,0,1,0,1.14-.19.9-1.12-.91-3.59-1.73-7.19-2.59-10.79C110.31,27.56,109.66,24.92,109,22Z" />
    <path
       id="path26"
       style="fill: #f0f;stroke: #f0f;stroke-miterlimit: 10;stroke-width: 0.5px"
       transform="translate(0.21 0.25)"
       d="M52.42,20.46V17c0-.77.22-1.08,1.09-.86Q68.27,20,83.06,23.78c1,.25,1.48.62,1.56,1.72.11,1.67.43,3.32.67,5,.12.81-.11,1-1,.86q-15.47-3.19-31-6.29c-.7-.14-.94-.44-.92-1.12C52.45,22.78,52.43,21.62,52.42,20.46Z" />
    <path
       id="path28"
       style="fill: #f0f;stroke: #f0f;stroke-miterlimit: 10;stroke-width: 0.5px"
       transform="translate(0.21 0.25)"
       d="M52.42,33.78c0-1.24.06-2.49,0-3.72s.45-1.3,1.39-1.14l15.57,2.7q4.38.77,8.78,1.48c.78.13,1,.45,1.11,1.24.17,2.06.43,4.12.69,6.18.12.9-.11,1.21-1.09,1.1-4.24-.49-8.49-.9-12.74-1.36s-8.4-.94-12.61-1.36c-.82-.08-1.12-.35-1.1-1.17C52.46,36.41,52.43,35.09,52.42,33.78Z" />
    <path
       id="path30"
       style="fill: none;stroke: #f0f;stroke-miterlimit: 10;stroke-width: 0.5px"
       transform="translate(0.21 0.25)"
       d="M92.57,72a2.91,2.91,0,0,0-1.26,1.66c-.27.59-.5,1.07-1.37,1.06a1.56,1.56,0,0,1-1.66-1c-.25-.61-.57-1.18-.86-1.77L87,72v3.7c0,.46.27,1.19-.21,1.31a6.74,6.74,0,0,1-2.37,0c-.3,0-.25-.45-.25-.73V65.6c0-.55.14-.76.73-.79,1.91-.11,1.91-.13,2.78,1.63.54,1.11,1.09,2.23,1.64,3.34.1.2.16.49.43.52s.42-.32.54-.55c.64-1.32,1.26-2.66,1.9-4a2.83,2.83,0,0,1,3-.9c.3.19.18.5.18.77V76.29c0,.68-.25.78-.84.79-2,0-2,.06-2-1.9Z" />
    <path
       id="path32"
       style="fill: none;stroke: #f0f;stroke-miterlimit: 10;stroke-width: 0.5px"
       transform="translate(0.21 0.25)"
       d="M23.65,70.86V65.58c0-.47,0-.78.62-.73,1.89.15,3.79-.22,5.69.27a3.23,3.23,0,0,1,2.56,3.78A3.37,3.37,0,0,1,32,70.12c-.32.48-.48.78-.09,1.32a3.42,3.42,0,0,1-.4,4.82,3.37,3.37,0,0,1-2.08.81c-1.71.14-3.43,0-5.15.06-.72,0-.63-.42-.63-.86C23.67,74.46,23.66,72.66,23.65,70.86Z" />
    <path
       id="path34"
       style="fill: none;stroke: #f0f;stroke-miterlimit: 10;stroke-width: 0.5px"
       transform="translate(0.21 0.25)"
       d="M27.65,74.55h.89a1.14,1.14,0,0,0,1.28-1,.87.87,0,0,0,0-.23c0-.78-.53-1.1-1.26-1.13H27.39c-.79-.09-1,.24-1,1-.06,1.14.3,1.63,1.3,1.36Z" />
    <path
       id="path36"
       style="fill: none;stroke: #f0f;stroke-miterlimit: 10;stroke-width: 0.5px"
       transform="translate(0.21 0.25)"
       d="M27.65,69.55h.75c.67,0,1.2-.27,1.22-1a1.07,1.07,0,0,0-1.21-1.14H27.34c-.79-.1-1,.24-1,1,0,1.28.66,1.25,1.38,1.17Z" />
    <path
       id="path38"
       style="fill: none;stroke: #f0f;stroke-miterlimit: 10;stroke-width: 0.5px"
       transform="translate(0.21 0.25)"
       d="M119.78,69.26c.82-1.31,1.9-2.05,2.55-3.19s3-1.69,3.89-1.16c.5.28.08.54-.09.75-.91,1.11-1.8,2.24-2.77,3.3a1.21,1.21,0,0,0-.22,1.7l0,0c1.15,1.82,2.19,3.71,3.31,5.55.42.69.3.79-.49.88a2.88,2.88,0,0,1-3.46-1.88c-.36-.88-.92-1.67-1.36-2.52-.3-.58-.54-.49-1-.08-.89.86-.52,1.93-.62,2.93,0,.5.3,1.27-.22,1.43A6.74,6.74,0,0,1,117,77c-.36,0-.24-.45-.24-.71V65.52c0-.61.22-.71.76-.73,2.09-.08,2.08-.1,2.1,2A7.09,7.09,0,0,0,119.78,69.26Z" />
    <path
       id="path40"
       style="fill: none;stroke: #f0f;stroke-miterlimit: 10;stroke-width: 0.5px"
       transform="translate(0.21 0.25)"
       d="M38.79,71V65.85c0-.71.15-1,.92-1,2.16,0,4.32.07,6.47,0,1,0,1,.48.86,1.1s.49,1.56-.85,1.49-2.48,0-3.71,0c-.74,0-.9.35-.84,1s-.2,1.28.8,1.25,2.08,0,3.11,0c.58,0,.74.18.76.76.07,1.82.09,1.82-1.72,1.82H42.91c-.85-.06-1.31.08-1.31,1.13s.35,1.32,1.32,1.25,2.24,0,3.36,0c.62,0,.82.17.83.81,0,1.76.06,1.76-1.66,1.76H39.81c-.77,0-1-.18-1-1C38.83,74.42,38.79,72.7,38.79,71Z" />
    <path
       id="path42"
       style="fill: none;stroke: #f0f;stroke-miterlimit: 10;stroke-width: 0.5px"
       transform="translate(0.21 0.25)"
       d="M132.07,70.89V65.73c0-.81.29-.9,1-.89h6.36c.58,0,1.08,0,.92.8s.51,1.75-.86,1.79-2.49,0-3.72,0c-.86,0-.89.42-.86,1s-.15,1.24.85,1.18,2,0,3,0c.66,0,.8.21.81.82,0,1.76.06,1.76-1.66,1.76a11.78,11.78,0,0,1-1.68,0c-1.06-.15-1.39.24-1.34,1.31,0,.84.27,1.12,1.1,1.07,1.16-.06,2.32,0,3.48,0,.6,0,.9.09.76.77a3.26,3.26,0,0,0,0,1.08c.05.51-.12.7-.66.69h-6.72c-.61,0-.73-.27-.72-.8C132.08,74.49,132.07,72.69,132.07,70.89Z" />
    <path
       id="path44"
       style="fill: none;stroke: #f0f;stroke-miterlimit: 10;stroke-width: 0.5px"
       transform="translate(0.21 0.25)"
       d="M69.5,77c-1.31.45-1.76-.2-2-1.19a.9.9,0,0,0-1-.83l-.14,0a6.78,6.78,0,0,1-1.56,0,1.4,1.4,0,0,0-1.73,1,1.37,1.37,0,0,0,0,.28c-.17.73-2.34,1.27-2.94.8-.31-.24-.11-.51,0-.75,1.3-3.6,2.63-7.19,3.9-10.8.27-.75.8-.64,1.35-.64s1.08-.12,1.35.64c1.29,3.62,2.7,7.21,3.92,10.86C71.18,77.88,69.68,76.65,69.5,77Z" />
    <path
       id="path46"
       style="fill: none;stroke: #f0f;stroke-miterlimit: 10;stroke-width: 0.5px"
       transform="translate(0.21 0.25)"
       d="M65.35,69.71c-.27.75-.45,1.34-.69,1.91s-.13,1,.67,1,1.34-.11.84-1.1A5.93,5.93,0,0,0,65.35,69.71Z" />
    <path
       id="path48"
       style="fill: none;stroke: #f0f;stroke-miterlimit: 10;stroke-width: 0.5px"
       transform="translate(0.21 0.25)"
       d="M109.87,77.11c-1,.32-1.46-.27-1.65-1.29a.92.92,0,0,0-1-.84l-.12,0a6.7,6.7,0,0,1-1.55,0,1.42,1.42,0,0,0-1.76.94,2.74,2.74,0,0,0,0,.28c-.18.75-2.32,1.31-2.92.82-.34-.27-.1-.59,0-.87,1.29-3.56,2.61-7.11,3.87-10.68.24-.69.7-.66,1.22-.63s1.21-.24,1.46.63c.65,2.24,1.71,4.34,2.32,6.61a34.34,34.34,0,0,0,1.37,3.53C111.65,77.11,111.64,77.11,109.87,77.11Z" />
    <path
       id="path50"
       style="fill: none;stroke: #f0f;stroke-miterlimit: 10;stroke-width: 0.5px"
       transform="translate(0.21 0.25)"
       d="M106,69.67a17.52,17.52,0,0,1-.73,2c-.35.76,0,.85.65.9,1,.07,1.3-.3.85-1.21A5.08,5.08,0,0,0,106,69.67Z" />
    <path
       id="path52"
       style="fill: none;stroke: orange;stroke-miterlimit: 10;stroke-width: 0.5px"
       transform="translate(0.21 0.25)"
       d="M323.81,0h-126a18,18,0,0,0-18,18V38.4a10.79,10.79,0,0,0-1.23,15.21,11.9,11.9,0,0,0,1.23,1.23V72a18,18,0,0,0,18,18h126a18,18,0,0,0,18-18V18A18,18,0,0,0,323.81,0Z" />
    <circle
       id="circle54"
       style="fill: none;stroke: orange;stroke-miterlimit: 10;stroke-width: 0.5px"
       r="4.5"
       cy="46.87"
       cx="188.02" />
    <path
       id="path56"
       style="fill: none;stroke: aqua;stroke-miterlimit: 10;stroke-width: 0.5px"
       transform="translate(0.21 0.25)"
       d="M312.38,26.46v4.71q0,11.2.06,22.42c0,.7-.29.9-.89,1-2.48.28-2.55.22-2.55-2.26V17.43c0-1.13.32-1.54,1.42-1.38a3.91,3.91,0,0,0,1.08,0c.79-.11,1.11.29,1.34,1q2.16,6.54,4.4,13c1,2.78,2,5.54,3,8.41a8.56,8.56,0,0,0,1-2.49c2.15-6.18,4.3-12.37,6.37-18.59.35-1,.76-1.45,1.91-1.4,2.36.12,2.06-.21,2.06,2.06V53.18c0,1.07-.3,1.37-1.35,1.33-2.07-.08-2.08,0-2.07-2.13,0-8.75-.13-17.5.17-26.41a3.73,3.73,0,0,0-.94,1.76c-.78,2.77-1.94,5.41-2.79,8.16-.92,3-2.06,5.92-3.12,8.87-.21.58-.26,1.23-1.21,1.2s-.91-.64-1.1-1.17l-6-16.93A3.74,3.74,0,0,0,312.38,26.46Z" />
    <path
       id="path58"
       style="fill: none;stroke: aqua;stroke-miterlimit: 10;stroke-width: 0.5px"
       transform="translate(0.21 0.25)"
       d="M199.55,35.21v-18c0-1,.18-1.36,1.25-1.31,2.95.15,5.92-.18,8.86.19,4.57.58,6.94,2.94,7.53,7.48a12.14,12.14,0,0,1-.77,6.71,19.09,19.09,0,0,1-1,1.65c-.34.56-1.26.65-1,1.29.11.35,1,.43,1.43.7a8.34,8.34,0,0,1,4.3,6.08,21.23,21.23,0,0,1-.24,8.1,8.14,8.14,0,0,1-7.31,6.13c-4.1.49-8.23.14-12.34.25-.9,0-.77-.62-.77-1.17V35.19Z" />
    <path
       id="path60"
       style="fill: none;stroke: aqua;stroke-miterlimit: 10;stroke-width: 0.5px"
       transform="translate(0.21 0.25)"
       d="M202.84,43.39v7c0,.42-.14.91.59.89,3-.08,6.08.2,9.1-.32,2.77-.48,4-1.82,4.35-4.61a21.74,21.74,0,0,0,.16-4.19c-.23-3.57-1.48-5.5-5.41-6.14-2.73-.45-5.5-.16-8.25-.24-.66,0-.54.45-.54.83Z" />
    <path
       id="path62"
       style="fill: none;stroke: aqua;stroke-miterlimit: 10;stroke-width: 0.5px"
       transform="translate(0.21 0.25)"
       d="M202.84,25.76v5.87c0,.52.07.78.69.79a23.75,23.75,0,0,0,7.13-.54,4.27,4.27,0,0,0,2.9-2.69,13.13,13.13,0,0,0,.3-5.68,4.6,4.6,0,0,0-4.18-4.26,43,43,0,0,0-6.21-.24c-.7,0-.63.44-.63.88Z" />
    <path
       id="path64"
       style="fill: none;stroke: aqua;stroke-miterlimit: 10;stroke-width: 0.5px"
       transform="translate(0.21 0.25)"
       d="M246.47,54.51H229.68c-1,0-1.32-.31-1.3-1.3q.09-4.26,0-8.52c0-1.09.29-1.5,1.44-1.4,3.38.3,6.77.43,10.15.76,5.47.52,11,.62,16.43,1.2,2.21.24,4.42.43,6.64.55.51,0,.51.44.56.78.33,2.25.62,4.51,1,6.75.14.93-.17,1.18-1.08,1.17C257.83,54.49,252.15,54.51,246.47,54.51Z" />
    <path
       id="path66"
       style="fill: none;stroke: aqua;stroke-miterlimit: 10;stroke-width: 0.5px"
       transform="translate(0.21 0.25)"
       d="M284.75,45.29h-4.67c-.7,0-1,.23-1.13.9-.57,2.37-1.25,4.71-1.8,7.09-.21,1-.57,1.3-1.59,1.26-2.22-.1-2.33.31-1.67-2.22,2.21-8.51,4.38-17,6.57-25.55.84-3.28,1.71-6.56,2.52-9.85a1,1,0,0,1,1.09-.9h.06c2.45,0,2.44-.06,3.05,2.29q1.36,5.36,2.74,10.69,1.54,6,3.11,12.11c1,4,2.06,8.11,3.14,12.15.27,1,0,1.28-1,1.26-2.22,0-2.22,0-2.8-2.15s-1.1-4.09-1.59-6.15a1,1,0,0,0-1-1,1.2,1.2,0,0,0-.2,0C288,45.33,286.35,45.29,284.75,45.29Z" />
    <path
       id="path68"
       style="fill: none;stroke: aqua;stroke-miterlimit: 10;stroke-width: 0.5px"
       transform="translate(0.21 0.25)"
       d="M284.92,22c-.76,3.22-1.66,6.08-2.24,9-.67,3.4-1.6,6.75-2.45,10.12-.19.72-.12,1,.71,1,2.56,0,5.12-.06,7.67,0,.95,0,1.13-.19.9-1.12-.91-3.59-1.73-7.19-2.6-10.79-.63-2.64-1.27-5.28-2-8.2Z" />
    <path
       id="path70"
       style="fill: none;stroke: aqua;stroke-miterlimit: 10;stroke-width: 0.5px"
       transform="translate(0.21 0.25)"
       d="M228.4,20.46V17c0-.77.22-1.08,1.09-.86Q244.25,20,259,23.78c1,.25,1.48.62,1.55,1.72.11,1.67.44,3.32.68,5,.12.81-.11,1-1,.86q-15.48-3.19-31-6.29c-.7-.14-.94-.44-.92-1.12A34,34,0,0,0,228.4,20.46Z" />
    <path
       id="path72"
       style="fill: none;stroke: aqua;stroke-miterlimit: 10;stroke-width: 0.5px"
       transform="translate(0.21 0.25)"
       d="M228.4,33.78V30.06c0-1.23.44-1.3,1.38-1.14q7.78,1.36,15.58,2.7,4.38.77,8.77,1.48c.79.13,1,.45,1.12,1.24.17,2.06.42,4.12.69,6.18.11.9-.11,1.21-1.09,1.1-4.24-.49-8.5-.9-12.74-1.36s-8.41-.94-12.61-1.36c-.82-.08-1.13-.35-1.1-1.17C228.43,36.41,228.4,35.09,228.4,33.78Z" />
    <path
       id="path74"
       style="fill: none;stroke: aqua;stroke-miterlimit: 10;stroke-width: 0.5px"
       transform="translate(0.21 0.25)"
       d="M268.54,72a2.86,2.86,0,0,0-1.25,1.66c-.28.59-.51,1.07-1.37,1.06a1.56,1.56,0,0,1-1.66-1c-.26-.61-.57-1.18-.86-1.77l-.4,0v3.7c0,.46.27,1.19-.21,1.31a6.8,6.8,0,0,1-2.38,0c-.29,0-.24-.45-.24-.73V65.6c0-.55.14-.76.73-.79,1.91-.11,1.91-.13,2.77,1.63.55,1.11,1.09,2.23,1.65,3.34.1.2.16.49.43.52s.42-.32.53-.55c.65-1.32,1.27-2.66,1.91-4a2.83,2.83,0,0,1,3-.9c.3.19.18.5.18.77V76.29c0,.68-.25.78-.84.79-2,0-2,.06-2-1.9Z" />
    <path
       id="path76"
       style="fill: none;stroke: aqua;stroke-miterlimit: 10;stroke-width: 0.5px"
       transform="translate(0.21 0.25)"
       d="M199.63,70.86V65.58c0-.47,0-.78.62-.73,1.89.15,3.79-.22,5.68.27a3.24,3.24,0,0,1,2.56,3.8,3.1,3.1,0,0,1-.5,1.2c-.32.48-.48.78-.09,1.32a3.42,3.42,0,0,1-.4,4.82,3.37,3.37,0,0,1-2.08.81c-1.71.14-3.44,0-5.16.06-.71,0-.62-.42-.62-.86Z" />
    <path
       id="path78"
       style="fill: none;stroke: aqua;stroke-miterlimit: 10;stroke-width: 0.5px"
       transform="translate(0.21 0.25)"
       d="M203.63,74.55h.89a1.16,1.16,0,0,0,1.28-1,1.62,1.62,0,0,0,0-.22c0-.78-.53-1.1-1.25-1.13h-1.19c-.79-.09-1,.24-1,1-.06,1.14.31,1.63,1.31,1.36Z" />
    <path
       id="path80"
       style="fill: none;stroke: aqua;stroke-miterlimit: 10;stroke-width: 0.5px"
       transform="translate(0.21 0.25)"
       d="M203.63,69.55h.74c.67,0,1.21-.27,1.23-1a1.07,1.07,0,0,0-1.22-1.14h-1.06c-.79-.1-1,.24-1,1,0,1.28.68,1.25,1.38,1.17Z" />
    <path
       id="path82"
       style="fill: none;stroke: aqua;stroke-miterlimit: 10;stroke-width: 0.5px"
       transform="translate(0.21 0.25)"
       d="M322.28,71V65.85c0-.7.11-1,.9-1,1.4.07,2.8,0,4.2,0A3.64,3.64,0,0,1,331,67.3a3.53,3.53,0,0,1-1.2,4.28c-.56.4-.39.76-.15,1.21.63,1.2,1.24,2.41,1.88,3.61.28.52.17.73-.42.71a15.69,15.69,0,0,0-1.68,0,1.05,1.05,0,0,1-1.19-.74c-.52-1.12-1.1-2.22-1.63-3.34-.22-.45-.5-.7-1-.6s-.47.56-.47.94c0,1-.05,1.92,0,2.88,0,.7-.22.87-.89.87-2,0-2,0-2-2Z" />
    <path
       id="path84"
       style="fill: none;stroke: aqua;stroke-miterlimit: 10;stroke-width: 0.5px"
       transform="translate(0.21 0.25)"
       d="M326.34,67.47c-.87-.18-1.33.12-1.25,1.25.09,1.3.3,1.55,2.25,1.46.78,0,.89-.77.91-1.42.06-1.36-.86-1.33-1.91-1.32Z" />
    <path
       id="path86"
       style="fill: none;stroke: aqua;stroke-miterlimit: 10;stroke-width: 0.5px"
       transform="translate(0.21 0.25)"
       d="M295.76,69.26c.81-1.31,1.9-2.05,2.55-3.19a3.8,3.8,0,0,1,3.89-1.16c.5.28.07.54-.09.75-.91,1.11-1.81,2.24-2.78,3.3a1.21,1.21,0,0,0-.2,1.71l0,0c1.15,1.82,2.19,3.71,3.31,5.55.42.69.29.79-.49.88a2.9,2.9,0,0,1-3.47-1.88c-.36-.88-.91-1.67-1.35-2.52-.3-.58-.55-.49-1-.08-.9.86-.52,1.93-.62,2.93-.05.5.29,1.27-.22,1.43A6.74,6.74,0,0,1,293,77c-.36,0-.24-.45-.24-.71V65.52c0-.61.22-.71.77-.73,2.09-.08,2.08-.1,2.09,2A7.34,7.34,0,0,0,295.76,69.26Z" />
    <path
       id="path88"
       style="fill: none;stroke: aqua;stroke-miterlimit: 10;stroke-width: 0.5px"
       transform="translate(0.21 0.25)"
       d="M214.77,71V65.85c0-.71.15-1,.93-1,2.15,0,4.31.07,6.47,0,1,0,1,.48.86,1.1s.49,1.56-.85,1.49-2.48,0-3.72,0c-.74,0-.89.35-.83,1s-.21,1.28.79,1.25,2.08,0,3.12,0c.57,0,.74.18.76.76.06,1.82.09,1.82-1.73,1.82h-1.68c-.84-.06-1.31.08-1.3,1.13s.34,1.32,1.32,1.25,2.23,0,3.35,0c.63,0,.82.17.84.81,0,1.76.06,1.76-1.67,1.76H215.8c-.78,0-1.06-.18-1-1C214.81,74.42,214.77,72.7,214.77,71Z" />
    <path
       id="path90"
       style="fill: none;stroke: aqua;stroke-miterlimit: 10;stroke-width: 0.5px"
       transform="translate(0.21 0.25)"
       d="M308,70.89V65.73c0-.81.3-.9,1-.89h6.35c.59,0,1.09,0,.93.8s.51,1.75-.87,1.79-2.48,0-3.71,0c-.86,0-.89.42-.86,1s-.15,1.24.84,1.18,2,0,3,0c.66,0,.8.21.81.82,0,1.76.06,1.76-1.67,1.76a11.64,11.64,0,0,1-1.67,0c-1.07-.15-1.39.24-1.34,1.31,0,.84.26,1.12,1.1,1.07,1.15-.06,2.32,0,3.48,0,.6,0,.89.09.75.77a3.91,3.91,0,0,0,0,1.08c.05.51-.12.7-.66.69h-6.71c-.62,0-.73-.27-.72-.8C308.06,74.49,308,72.69,308,70.89Z" />
    <path
       id="path92"
       style="fill: none;stroke: aqua;stroke-miterlimit: 10;stroke-width: 0.5px"
       transform="translate(0.21 0.25)"
       d="M245.48,77c-1.31.45-1.76-.2-2-1.19a.89.89,0,0,0-.94-.83l-.16,0a6.7,6.7,0,0,1-1.55,0,1.39,1.39,0,0,0-1.73.94,1.57,1.57,0,0,0,0,.3c-.17.73-2.35,1.27-3,.8-.3-.24-.1-.51,0-.75,1.3-3.6,2.63-7.19,3.91-10.8.27-.75.8-.64,1.35-.64s1.08-.12,1.35.64c1.29,3.62,2.7,7.21,3.92,10.86C247.15,77.88,245.66,76.65,245.48,77Z" />
    <path
       id="path94"
       style="fill: none;stroke: aqua;stroke-miterlimit: 10;stroke-width: 0.5px"
       transform="translate(0.21 0.25)"
       d="M241.33,69.71c-.27.75-.46,1.34-.7,1.91s-.12,1,.68,1,1.34-.11.84-1.1A6.16,6.16,0,0,0,241.33,69.71Z" />
    <path
       id="path96"
       style="fill: none;stroke: aqua;stroke-miterlimit: 10;stroke-width: 0.5px"
       transform="translate(0.21 0.25)"
       d="M285.84,77.11c-1,.32-1.45-.27-1.64-1.29a.92.92,0,0,0-1-.84l-.12,0a6.78,6.78,0,0,1-1.56,0,1.41,1.41,0,0,0-1.75,1,2,2,0,0,0-.05.26c-.19.75-2.32,1.31-2.93.82-.34-.27-.09-.59,0-.87,1.29-3.56,2.61-7.11,3.86-10.68.25-.69.71-.66,1.23-.63s1.21-.24,1.46.63c.65,2.24,1.71,4.34,2.32,6.61a34.34,34.34,0,0,0,1.37,3.53C287.63,77.11,287.62,77.11,285.84,77.11Z" />
    <path
       id="path98"
       style="fill: none;stroke: aqua;stroke-miterlimit: 10;stroke-width: 0.5px"
       transform="translate(0.21 0.25)"
       d="M282,69.67a19.88,19.88,0,0,1-.72,2c-.35.76,0,.85.64.9,1,.07,1.3-.3.86-1.21A5.21,5.21,0,0,0,282,69.67Z" />
  </g>
</svg>
