<?xml version="1.0" encoding="UTF-8" standalone="no"?>
<svg
   xmlns:dc="http://purl.org/dc/elements/1.1/"
   xmlns:cc="http://creativecommons.org/ns#"
   xmlns:rdf="http://www.w3.org/1999/02/22-rdf-syntax-ns#"
   xmlns:svg="http://www.w3.org/2000/svg"
   xmlns="http://www.w3.org/2000/svg"
   id="svg8"
   version="1.1"
   viewBox="50 100 100 100"
   height="500"
   width="500"
   >
  <defs
     id="defs2">
    <clipPath
       id="clipPath1363"
       clipPathUnits="userSpaceOnUse">
      <rect
         y="107.90681"
         x="72.430038"
         height="6.8821902"
         width="53.186634"
         id="rect1365"
         style="fill:#070000;fill-opacity:0.98823529;stroke:none;stroke-width:0.26458332;stroke-opacity:0.03809521" />
    </clipPath>
    <clipPath
       id="clipPath1369"
       clipPathUnits="userSpaceOnUse">
      <rect
         y="98.619194"
         x="134.16931"
         height="17.038431"
         width="53.453903"
         id="rect1371"
         style="fill:#070000;fill-opacity:0.98823529;stroke:none;stroke-width:0.26458332;stroke-opacity:0.03809521" />
    </clipPath>
  </defs>
  <metadata
     id="metadata5">
    <rdf:RDF>
      <cc:Work
         rdf:about="">
        <dc:format>image/svg+xml</dc:format>
        <dc:type
           rdf:resource="http://purl.org/dc/dcmitype/StillImage" />
        <dc:title></dc:title>
      </cc:Work>
    </rdf:RDF>
  </metadata>
  <g
     id="layer1">
    <path
       transform="matrix(1.045315,0,0,1.1089193,-2.5063972,27.00779)"
       clip-path="url(#clipPath1363)"
       id="path215"
       d="m 73.716075,113.86884 c -0.12017,-0.29165 -0.08865,-4.04312 0.03553,-4.22556 0.08361,-0.12287 0.432285,-0.15134 1.46766,-0.11984 1.225389,0.0373 1.390191,0.0696 1.687731,0.3301 0.401238,0.35141 0.550611,0.99506 0.350511,1.51042 -0.119386,0.30748 -0.109668,0.46825 0.04975,0.82363 0.252715,0.56328 0.07481,1.27048 -0.408728,1.62469 -0.291558,0.2136 -0.518692,0.24609 -1.72013,0.24609 -1.143534,0 -1.397798,-0.033 -1.462316,-0.18954 z m 3.071405,-0.29546 c 0.387492,-0.36134 0.452489,-0.89345 0.17332,-1.41895 -0.236955,-0.44605 -0.241,-0.50384 -0.05273,-0.75418 0.253751,-0.33739 0.25763,-0.61224 0.01482,-1.04955 -0.244637,-0.44059 -0.778201,-0.60619 -1.953107,-0.60619 H 74.02398 v 2.04834 2.04833 l 1.282334,-0.0413 c 0.940314,-0.0302 1.335359,-0.0907 1.481169,-0.22662 z m -1.773462,-0.43768 c -0.180681,-0.0437 -0.223561,-0.15369 -0.193,-0.49538 0.03872,-0.43306 0.04798,-0.43982 0.650016,-0.47581 0.554443,-0.0331 0.625153,-0.007 0.767371,0.2837 0.139336,0.28481 0.123588,0.34514 -0.142478,0.54578 -0.289423,0.21826 -0.597584,0.25863 -1.081909,0.14171 z m 0.828059,-0.28397 c 0.205374,-0.10232 0.226415,-0.16271 0.104455,-0.29958 -0.227545,-0.25534 -0.764554,-0.22141 -0.764554,0.0483 0,0.38851 0.218156,0.47156 0.660099,0.25127 z m -0.995982,-1.60063 c -0.161244,-0.39134 0.0066,-0.72688 0.383596,-0.767 0.675936,-0.072 0.981621,0.0676 0.981621,0.44817 0,0.38516 -0.181881,0.48985 -0.850899,0.48985 -0.265784,0 -0.472115,-0.0686 -0.514318,-0.17102 z m 1.043546,-0.3083 c 0,-0.21017 -0.54967,-0.31489 -0.737029,-0.1404 -0.20507,0.19098 0.0232,0.39709 0.395349,0.35697 0.200365,-0.0216 0.34168,-0.1112 0.34168,-0.21657 z m 3.567655,0.87227 0.03504,-2.2503 h 1.672669 1.672665 v 0.53923 0.53923 l -0.997168,0.035 c -0.891452,0.0313 -0.997166,0.0598 -0.997166,0.26961 0,0.20888 0.09177,0.23462 0.836334,0.23462 h 0.836329 v 0.59915 0.59914 H 81.67967 c -0.802497,0 -0.836334,0.012 -0.836334,0.29454 0,0.28449 0.03407,0.29573 0.997166,0.32953 l 0.997168,0.035 v 0.47932 0.47931 l -1.707687,0.0335 -1.707687,0.0335 z m 3.163405,1.67931 c 0.03829,-0.25078 -0.0113,-0.26627 -0.959571,-0.29959 -0.946295,-0.0332 -1.004176,-0.0512 -1.07846,-0.3347 -0.161233,-0.61531 -0.03801,-0.71898 0.854651,-0.71898 h 0.821328 v -0.35949 -0.3595 h -0.826904 c -0.882929,0 -0.985453,-0.0807 -0.86889,-0.68421 0.04678,-0.24214 0.135301,-0.26778 1.034303,-0.29958 0.952969,-0.0337 0.983156,-0.044 0.983156,-0.33433 v -0.29957 l -1.447498,-0.0338 -1.447505,-0.0338 v 2.04496 2.04496 l 1.447505,-0.0338 c 1.38178,-0.0323 1.449332,-0.0458 1.487885,-0.29832 z m 4.790969,0.3543 c 0.0031,-0.11528 0.366201,-1.1264 0.806012,-2.2468 l 0.799653,-2.03711 h 0.560884 0.560893 l 0.820434,2.09089 c 0.451237,1.14999 0.820437,2.16106 0.820437,2.24681 0,0.10879 -0.21023,0.15591 -0.69508,0.15591 -0.656626,0 -0.702521,-0.0199 -0.829639,-0.35948 -0.120283,-0.32135 -0.19107,-0.35949 -0.667097,-0.35949 -0.47355,0 -0.548671,0.0398 -0.678239,0.35949 -0.136553,0.33691 -0.188355,0.35948 -0.825156,0.35948 -0.563744,0 -0.678378,-0.0357 -0.673102,-0.2097 z m 1.261036,-0.38944 c 0.129683,-0.34649 0.162977,-0.35949 0.919936,-0.35949 0.756986,0 0.790261,0.013 0.919953,0.35949 0.113597,0.30347 0.202098,0.35948 0.567928,0.35948 h 0.43336 l -0.25654,-0.6291 c -0.1411,-0.34601 -0.502008,-1.24923 -0.802007,-2.00716 -0.481048,-1.21531 -0.583185,-1.38209 -0.864905,-1.41241 -0.350448,-0.0378 -0.293127,-0.14975 -1.412586,2.76051 l -0.495504,1.28816 h 0.427899 c 0.359767,0 0.44933,-0.0572 0.562466,-0.35948 z m 0.569798,-1.44287 c 0.132265,-0.91838 0.62557,-0.94353 0.656326,-0.0335 0.01424,0.41987 -0.0153,0.46106 -0.356672,0.49735 -0.367656,0.0391 -0.371282,0.0335 -0.299654,-0.46387 z m 0.478812,0.0648 c 0,-0.0988 -0.05783,-0.17975 -0.128674,-0.17975 -0.07075,0 -0.128665,0.0808 -0.128665,0.17975 0,0.0988 0.05783,0.17974 0.128665,0.17974 0.07075,0 0.128674,-0.0808 0.128674,-0.17974 z m 6.819337,-0.29958 v -2.27677 h 0.61512 0.61513 l 0.49321,0.92834 0.49324,0.92833 0.50499,-0.9347 0.50498,-0.93472 0.606157,0.0363 0.60618,0.0363 0.035,2.24682 0.035,2.2468 h -0.71051 -0.710507 l -0.003,-0.74893 c -0.002,-0.68124 -0.0165,-0.72186 -0.16384,-0.44937 -0.12584,0.2328 -0.27733,0.30753 -0.67953,0.33523 -0.47277,0.0326 -0.53585,10e-4 -0.72859,-0.35948 l -0.21103,-0.39515 -0.008,0.80885 -0.008,0.80885 h -0.64334 -0.64333 v -2.27677 z m 1.02933,1.13838 c 0,-1.05742 0.21654,-1.19857 0.64333,-0.4194 0.35486,0.6478 0.81197,0.66932 1.08925,0.0513 0.10561,-0.23542 0.2462,-0.39685 0.31241,-0.35874 0.0662,0.0381 0.1497,0.001 0.18553,-0.0812 0.0359,-0.0828 0.0697,0.26738 0.0754,0.77815 l 0.0101,0.92868 h 0.450337 0.45033 v -2.0371 -2.03711 h -0.42457 c -0.403117,0 -0.449927,0.0485 -0.926417,0.95863 -0.27604,0.52726 -0.57648,0.95864 -0.66767,0.95864 -0.0911,0 -0.39869,-0.43138 -0.68334,-0.95864 -0.47344,-0.87695 -0.55031,-0.95863 -0.9021,-0.95863 h -0.38458 v 2.03711 2.0371 h 0.38602 0.386 z m 5.153047,0.92868 c 0.003,-0.11528 0.36537,-1.12639 0.80416,-2.2468 l 0.7978,-2.03711 h 0.56272 0.56274 l 0.82043,2.0909 c 0.45126,1.14998 0.82044,2.16105 0.82044,2.2468 0,0.10832 -0.20743,0.15592 -0.67945,0.15592 -0.6368,0 -0.6886,-0.0226 -0.82516,-0.35949 -0.12984,-0.32034 -0.20419,-0.35949 -0.68272,-0.35949 -0.47854,0 -0.55289,0.0392 -0.68273,0.35949 -0.13654,0.33691 -0.18835,0.35949 -0.82515,0.35949 -0.56375,0 -0.67837,-0.0357 -0.67308,-0.20971 z m 1.26101,-0.38944 c 0.12911,-0.34494 0.16544,-0.35949 0.89765,-0.35949 0.72655,0 0.77074,0.0172 0.92296,0.35949 0.12529,0.28168 0.24005,0.35949 0.53028,0.35949 0.21159,0 0.36955,-0.0642 0.36841,-0.14979 -7.7e-4,-0.0824 -0.33518,-0.9856 -0.74241,-2.00716 -0.67015,-1.68105 -0.77131,-1.86073 -1.06579,-1.89293 -0.29696,-0.0325 -0.35457,0.0407 -0.65996,0.8388 -0.18402,0.48091 -0.54058,1.40015 -0.79233,2.04273 l -0.45775,1.16835 h 0.43219 c 0.36454,0 0.45325,-0.0563 0.56675,-0.35949 z m 0.48273,-1.0587 c -0.0366,-0.0551 -0.002,-0.29769 0.0784,-0.53923 0.19956,-0.60558 0.54408,-0.58899 0.71398,0.0344 0.071,0.26045 0.0973,0.50311 0.0585,0.53923 -0.11111,0.10352 -0.77722,0.0765 -0.85085,-0.0343 z m 0.56589,-0.31934 c 0,-0.0988 -0.0578,-0.17975 -0.12867,-0.17975 -0.0708,0 -0.12866,0.0808 -0.12866,0.17975 0,0.0988 0.0578,0.17974 0.12866,0.17974 0.0708,0 0.12867,-0.0808 0.12867,-0.17974 z m 3.73133,-0.29958 v -2.28929 l 0.6755,0.0362 0.6755,0.0362 0.0644,0.57403 0.0644,0.57401 0.51466,-0.60848 0.51468,-0.60847 0.6975,0.0344 c 0.38362,0.0189 0.71879,0.0946 0.74482,0.16821 0.026,0.0735 -0.24442,0.45892 -0.60102,0.85635 -0.35656,0.39744 -0.64831,0.78865 -0.64831,0.86936 0,0.0807 0.30191,0.63394 0.67091,1.22938 0.36899,0.59546 0.68232,1.15511 0.69627,1.2437 0.0187,0.11911 -0.16969,0.16107 -0.72415,0.16107 h -0.74955 l -0.47466,-0.7905 c -0.26107,-0.43477 -0.5233,-0.74484 -0.58271,-0.68901 -0.0594,0.0558 -0.12582,0.39806 -0.14757,0.76054 l -0.0396,0.65906 -0.67551,0.0362 -0.67549,0.0362 z m 1.158,1.39662 c 0,-0.48897 0.0611,-0.69197 0.25813,-0.85804 0.30668,-0.2585 0.31443,-0.25251 0.90237,0.69637 0.41963,0.67723 0.50162,0.7455 0.93636,0.77944 0.26206,0.0204 0.47648,0.0139 0.47648,-0.0146 0,-0.0286 -0.31846,-0.54613 -0.70767,-1.15027 -0.38923,-0.60415 -0.70767,-1.14746 -0.70767,-1.20739 0,-0.06 0.28949,-0.43292 0.64333,-0.82889 0.35384,-0.39598 0.64333,-0.74928 0.64333,-0.78512 0,-0.0359 -0.20077,-0.0651 -0.44615,-0.0651 -0.38978,0 -0.52392,0.0898 -1.06151,0.71069 -0.33843,0.39086 -0.68482,0.7144 -0.76976,0.71897 -0.0991,0.005 -0.16822,-0.2386 -0.19299,-0.68072 -0.0382,-0.6812 -0.0433,-0.68944 -0.45675,-0.72657 l -0.41817,-0.0375 v 2.0447 2.0447 h 0.45033 0.45034 z m 4.6057,-1.12701 c -0.021,-1.10392 -0.0195,-2.12846 0.003,-2.27675 0.0402,-0.26374 0.0774,-0.26963 1.70483,-0.26963 h 1.66372 v 0.59916 0.59914 h -1.02934 c -0.93554,0 -1.02933,0.0213 -1.02933,0.23419 0,0.20573 0.10553,0.23848 0.86851,0.26961 l 0.8685,0.0355 v 0.53923 0.53924 l -0.83635,0.0598 c -0.72911,0.0522 -0.83633,0.0907 -0.83633,0.29957 0,0.26157 0.0167,0.26558 1.19017,0.28576 l 0.80417,0.0138 v 0.53924 0.53923 h -1.6668 -1.66681 z m 3.11431,1.47296 c 0,-0.28448 -0.034,-0.29573 -0.99718,-0.32953 l -0.99716,-0.035 v -0.47932 -0.47933 l 0.86849,-0.0355 c 0.86445,-0.0353 0.8685,-0.0371 0.8685,-0.38398 0,-0.34691 -0.005,-0.34871 -0.8685,-0.38398 l -0.86849,-0.0355 v -0.41942 -0.4194 l 0.99716,-0.035 0.99718,-0.035 v -0.35445 -0.35444 h -1.41535 -1.41533 v 2.0371 2.0371 h 1.41533 1.41535 z m 2.27311,0.4543 c -0.10722,-0.0998 -0.11426,-4.02546 -0.008,-4.2841 0.10873,-0.26384 2.21056,-0.26974 2.80311,-0.008 0.86436,0.382 1.13534,1.52136 0.52303,2.19909 l -0.32712,0.36205 0.39145,0.72219 c 0.55404,1.02218 0.5347,1.08852 -0.31742,1.08852 h -0.70887 l -0.41241,-0.7789 c -0.22683,-0.42838 -0.4579,-0.77889 -0.51347,-0.77889 -0.0556,0 -0.10105,0.35051 -0.10105,0.77889 v 0.7789 h -0.6219 c -0.34203,0 -0.66049,-0.036 -0.70767,-0.0799 z m 1.07221,-0.93866 c 0,-0.7517 0.0112,-0.77889 0.32288,-0.77889 0.26931,0 0.39129,0.12923 0.73527,0.77889 0.39955,0.75459 0.42768,0.7789 0.90132,0.7789 h 0.48891 l -0.38785,-0.71556 c -0.45702,-0.84317 -0.47092,-0.97474 -0.13304,-1.25952 0.58086,-0.48956 0.43404,-1.45138 -0.28379,-1.85898 -0.55514,-0.31523 -2.34212,-0.3519 -2.46627,-0.0506 -0.10647,0.25846 -0.0995,3.70495 0.008,3.80479 0.0473,0.0439 0.24982,0.0799 0.45034,0.0799 0.3629,0 0.36454,-0.004 0.36454,-0.7789 z m 0.0507,-1.6675 c -0.0384,-0.0933 -0.0511,-0.32246 -0.0281,-0.50927 0.0367,-0.29889 0.10076,-0.34418 0.53325,-0.37734 0.27031,-0.0208 0.57429,0.0264 0.67549,0.1046 0.22413,0.17324 0.24021,0.61178 0.0296,0.8079 -0.21894,0.2039 -1.12354,0.1846 -1.21024,-0.0258 z m 1.04296,-0.36961 c 0,-0.1828 -0.0992,-0.24857 -0.41816,-0.27721 -0.37587,-0.0337 -0.41818,-0.006 -0.41818,0.27721 0,0.28293 0.0423,0.31097 0.41818,0.27721 0.31895,-0.0287 0.41816,-0.0944 0.41816,-0.27721 z m -48.383953,-5.00284 c -0.03385,-0.0824 -0.04651,-3.16949 -0.02812,-6.860261 l 0.03342,-6.710466 h 2.316006 2.316 l 0.707669,0.372201 c 0.94327,0.49612 1.397837,1.17469 1.58127,2.360495 0.114237,0.73849 0.101031,1.02529 -0.07838,1.70236 -0.118668,0.44783 -0.360615,0.99112 -0.53766,1.20731 -0.394489,0.48167 -0.39458,0.4859 -0.01282,0.57515 0.451136,0.10544 1.416766,1.16459 1.61275,1.768921 0.419938,1.29496 0.264286,3.32876 -0.32663,4.26783 -0.404033,0.64209 -1.120556,1.09059 -2.077255,1.30026 -1.000526,0.21927 -5.417495,0.23227 -5.506266,0.0162 z m 5.86807,-0.43578 c 1.342389,-0.47601 1.798129,-1.21728 1.892211,-3.07771 0.07866,-1.55558 -0.155187,-2.38024 -0.861498,-3.038041 -0.272091,-0.2534 -0.704057,-0.52508 -0.959934,-0.60372 -0.562623,-0.17293 -0.576217,-0.31601 -0.07369,-0.77532 0.980371,-0.89607 1.013424,-3.423326 0.05858,-4.480147 -0.613332,-0.678848 -1.440826,-0.896524 -3.634628,-0.956109 l -1.962173,-0.0533 v 6.681926 6.681921 l 2.412504,-0.0627 c 2.039038,-0.053 2.523358,-0.10208 3.128617,-0.31672 z m -4.543948,-0.5581 c -0.05305,-0.0521 -0.0965,-1.35279 -0.0965,-2.89061 v -2.796021 h 1.754237 c 1.987511,0 2.600545,0.12528 3.203138,0.65456 0.521457,0.458021 0.703904,1.054661 0.697594,2.281271 -0.0075,1.473 -0.360862,2.17387 -1.277689,2.53476 -0.500459,0.197 -4.114129,0.37937 -4.280781,0.21604 z m 4.30039,-0.57505 c 0.692558,-0.31814 0.90289,-0.82646 0.918822,-2.22055 0.0244,-2.13277 -0.680169,-2.651381 -3.602065,-2.651381 h -1.456314 v 2.587591 2.58757 l 1.833502,-0.0431 c 1.441939,-0.0338 1.934415,-0.0895 2.306055,-0.26014 z m -4.107441,-6.047311 c -0.289391,-0.0396 -0.289498,-0.0405 -0.289498,-2.48775 v -2.448183 l 1.447498,0.0026 c 1.154593,0.0023 1.559032,0.04977 1.998683,0.235616 0.750537,0.317249 1.051496,0.935017 1.051496,2.158357 0,1.51781 -0.596287,2.30476 -1.855821,2.44924 -0.761776,0.0873 -2.019802,0.13554 -2.352358,0.0901 z m 2.940348,-0.57746 c 0.689466,-0.37501 0.949199,-0.91486 0.943792,-1.96162 -0.0086,-1.668889 -0.508608,-2.076057 -2.565307,-2.089112 l -1.286666,-0.0082 -0.03515,2.203042 -0.03515,2.20306 1.275201,-0.0572 c 0.946889,-0.0425 1.385409,-0.1172 1.703251,-0.29001 z m 6.498254,8.153941 c -0.04294,-0.10424 -0.0781,-0.99568 -0.0781,-1.98095 0,-1.56351 0.02737,-1.80118 0.21507,-1.86827 0.197986,-0.0708 1.494737,-0.001 9.499273,0.5052 3.55922,0.22543 3.64924,0.23928 3.72471,0.57303 0.18771,0.82984 0.42868,2.65007 0.36979,2.79302 -0.0579,0.14055 -1.16246,0.16751 -6.86083,0.16751 -6.074552,0 -6.800067,-0.02 -6.869915,-0.18954 z m 13.512263,-0.43956 c -0.0424,-0.21419 -0.13997,-0.82083 -0.21699,-1.34809 -0.0771,-0.52725 -0.17912,-0.99447 -0.22687,-1.03829 -0.0477,-0.0438 -2.66338,-0.24681 -5.81249,-0.4511 -3.149122,-0.20429 -6.029658,-0.40383 -6.401176,-0.44342 l -0.675501,-0.072 v 1.87118 1.87117 h 6.704987 6.70499 z m 3.393297,0.35949 c -4.8e-4,-0.29556 3.40481,-12.801719 3.60695,-13.247172 0.11271,-0.248369 0.19715,-0.272041 0.85482,-0.239658 l 0.72975,0.03594 0.60778,2.21685 c 0.33426,1.219279 1.16783,4.259489 1.85236,6.75605 0.76429,2.78739 1.19859,4.58205 1.12536,4.65026 -0.0656,0.0611 -0.4303,0.0945 -0.81044,0.0742 l -0.69115,-0.0368 -0.44082,-1.58775 -0.44083,-1.58774 h -2.00933 -2.00935 l -0.37273,1.40799 c -0.50065,1.8911 -0.45537,1.8274 -1.29888,1.8274 -0.64331,0 -0.70317,-0.0229 -0.70349,-0.26961 z m 1.6584,-1.6177 0.43574,-1.58775 h 2.28434 2.28434 l 0.28184,0.9886 c 0.67525,2.36867 0.61525,2.2468 1.10648,2.2468 0.24267,0 0.44121,-0.0463 0.44121,-0.1028 0,-0.0865 -1.34738,-5.02739 -3.12441,-11.457355 -0.42249,-1.528758 -0.43617,-1.55562 -0.82979,-1.630598 -0.22014,-0.04193 -0.45824,-0.04284 -0.52916,-0.002 -0.10928,0.0629 -0.88036,2.767602 -3.23158,11.335413 -0.21704,0.79089 -0.42787,1.53587 -0.46852,1.65552 -0.064,0.18829 -0.008,0.21248 0.41995,0.17976 l 0.49385,-0.0378 z m 0.83446,-2.60311 c -0.0575,-0.13957 0.90368,-4.062541 1.63758,-6.683701 0.23066,-0.823781 0.43905,-0.540578 0.88173,1.19829 0.23071,0.90622 0.61597,2.41472 0.85615,3.35224 0.24019,0.937511 0.4367,1.840731 0.4367,2.007151 v 0.30257 h -1.86971 c -1.52826,0 -1.88298,-0.0323 -1.94245,-0.17655 z m 3.42874,-0.57238 c -0.0545,-0.2142 -0.39838,-1.575771 -0.76431,-3.025711 -0.36594,-1.44993 -0.68087,-2.68702 -0.69985,-2.74908 -0.0315,-0.10268 -1.63061,5.865351 -1.62768,6.074371 5.4e-4,0.0494 0.71892,0.0898 1.59604,0.0898 h 1.59478 z m 7.49119,-1.791441 0.0333,-6.866266 0.62911,-0.03721 c 0.34603,-0.02045 0.69326,0.02253 0.77165,0.09553 0.0784,0.07301 0.75241,1.79871 1.49784,3.834906 l 1.35533,3.702171 1.14691,-3.138641 c 0.63079,-1.72624 1.26911,-3.435208 1.41847,-3.797694 l 0.27155,-0.659064 0.6884,-0.03686 c 0.46347,-0.02482 0.72326,0.01432 0.79509,0.119824 0.12123,0.178019 0.15264,13.156535 0.0325,13.448005 -0.0578,0.1403 -0.25773,0.18954 -0.76954,0.18954 -0.62613,0 -0.69892,-0.0277 -0.77043,-0.29302 -0.0434,-0.16118 -0.059,-2.25974 -0.0346,-4.66346 0.0243,-2.403741 0.0378,-4.361401 0.0299,-4.350381 -0.008,0.0108 -0.52415,1.36814 -1.14704,3.0158 -0.62289,1.647661 -1.18798,3.063151 -1.25574,3.145531 -0.0678,0.0824 -0.26367,0.14979 -0.43534,0.14979 -0.37632,0 -0.32837,0.0987 -1.66349,-3.422961 l -1.01654,-2.68137 -0.0644,4.520081 -0.0644,4.52008 -0.7409,0.036 -0.74089,0.036 z m 1.20261,6.046431 c 0.0503,-0.3125 0.0593,-2.60058 0.0201,-5.08465 -0.0577,-3.645821 -0.0396,-4.505121 0.0936,-4.457521 0.0908,0.0324 0.75895,1.62086 1.48491,3.52983 0.72596,1.908991 1.36598,3.497381 1.42225,3.529761 0.16872,0.0972 0.2592,-0.10808 1.59881,-3.625601 0.70819,-1.85956 1.34553,-3.38292 1.4163,-3.38524 0.0833,-0.002 0.1405,1.77058 0.16222,5.028691 l 0.0336,5.03288 h 0.44894 0.44893 v -6.590631 -6.590642 h -0.49808 -0.49809 l -1.00404,2.726132 c -0.55224,1.49937 -1.19364,3.2384 -1.42533,3.86451 -0.26091,0.705021 -0.49726,1.153131 -0.62087,1.177121 -0.10978,0.0212 -0.19972,0.0212 -0.19989,0 -1.8e-4,-0.0212 -0.63013,-1.764291 -1.3999,-3.873291 l -1.39959,-3.834557 -0.53009,-0.03685 -0.53012,-0.03685 v 6.597527 6.597531 h 0.44245 c 0.42909,0 0.44522,-0.0172 0.53394,-0.56816 z m -23.300037,-3.92981 c -0.77843,-0.0853 -2.891783,-0.30178 -4.696336,-0.48113 -1.804553,-0.17933 -3.353375,-0.37925 -3.441832,-0.44425 -0.240497,-0.17672 -0.227437,-3.427791 0.01412,-3.514121 0.214815,-0.0768 9.863078,1.46017 9.998708,1.59275 0.10491,0.10257 0.37606,2.004101 0.37665,2.641371 4.8e-4,0.45732 0.0267,0.45492 -2.2513,0.20538 z m 1.92783,-1.16401 c -0.14,-1.653741 -0.0752,-1.581671 -1.62842,-1.810251 -0.73081,-0.10748 -2.83415,-0.43778 -4.674073,-0.73384 -1.83994,-0.29606 -3.417715,-0.53902 -3.506174,-0.53991 -0.12077,-0.001 -0.160832,0.39923 -0.160832,1.60746 v 1.609081 l 0.675502,0.073 c 3.482758,0.37691 8.493147,0.87782 8.891667,0.88894 l 0.49615,0.0138 z m 0.96717,-2.434951 c -0.45998,-0.088 -3.12034,-0.59395 -5.911921,-1.12412 -2.791573,-0.53015 -5.123908,-1.00893 -5.182968,-1.06393 -0.05906,-0.0551 -0.09104,-0.76962 -0.07107,-1.588038 l 0.03629,-1.488029 0.514665,0.0065 c 0.445713,0.0056 11.488394,2.624297 11.632524,2.758547 0.0665,0.0619 0.39124,2.04957 0.39505,2.41758 0.003,0.31506 -0.14753,0.32375 -1.41256,0.0814 z m 1.14993,-0.32114 c -0.005,-0.14828 -0.0769,-0.66819 -0.16083,-1.15536 l -0.15276,-0.88574 -3.667,-0.880587 c -2.016857,-0.484325 -4.564459,-1.097342 -5.661342,-1.362269 -1.096885,-0.264924 -2.095659,-0.481139 -2.219501,-0.480477 -0.201273,9.91e-4 -0.225166,0.146947 -0.225166,1.374625 v 1.373418 l 0.482498,0.1148 c 0.26538,0.0631 1.408901,0.28805 2.541163,0.49983 1.132273,0.21178 3.535128,0.66899 5.339668,1.01601 1.80455,0.34703 3.38234,0.63646 3.50618,0.64318 0.15377,0.008 0.22261,-0.0733 0.21709,-0.2574 z"
       style="fill:#0000fe;fill-opacity:1;stroke-width:0.12416968" />
    <rect
       ry="6.0135655"
       y="125.15643"
       x="65.066811"
       height="35"
       width="65"
       id="rect255"
       style="fill:none;fill-opacity:0.88095236;stroke-width:0.25610343;stroke:#fb0000;stroke-opacity:1" />
    <ellipse
       ry="2.421978"
       rx="2.3747308"
       cy="141.88802"
       cx="69.73661"
       id="path1373"
       style="fill:none;fill-opacity:0.98823529;stroke:#ff0000;stroke-width:0.2398238;stroke-opacity:1" />
    <g
       transform="matrix(1.0593338,0,0,1.2659087,-6.810443,-37.722511)"
       id="g1567">
      <path
         style="fill:#040000;fill-opacity:1;stroke:#170000;stroke-width:0.06681738;stroke-opacity:1"
         d="m 77.325408,138.36188 v -5.74142 l 0.851921,0.001 c 1.20119,0.002 2.743652,0.11093 3.25796,0.23021 1.107567,0.25686 1.67259,0.88192 1.835491,2.03052 0.135081,0.95243 -0.134799,1.83795 -0.737065,2.41843 -0.369904,0.35653 -0.400862,0.50943 -0.129715,0.64064 0.09162,0.0443 0.374798,0.17763 0.629298,0.29622 0.535059,0.24932 0.994749,0.67629 1.180685,1.09662 0.279043,0.63083 0.296185,2.13382 0.03419,2.99771 -0.23169,0.76396 -0.767744,1.20481 -1.811237,1.48958 -0.403084,0.11 -1.847127,0.20684 -3.725068,0.24981 l -1.386459,0.0317 z m 4.276312,5.01417 c 0.720765,-0.0754 0.995826,-0.15187 1.352375,-0.37616 0.535721,-0.33701 0.782937,-0.99754 0.784736,-2.09674 0.0019,-1.12038 -0.226827,-1.66432 -0.888389,-2.11327 -0.523753,-0.35544 -1.04208,-0.43545 -3.069497,-0.4738 l -1.787364,-0.0338 v 1.83592 c 0,1.00976 0.01977,2.15903 0.04393,2.55394 0.03927,0.64182 0.05877,0.72459 0.183748,0.77988 0.164065,0.0726 2.451507,0.0212 3.380459,-0.076 z m -1.504982,-5.74477 c 1.149763,-0.0841 1.512755,-0.20204 1.944209,-0.63181 0.450247,-0.44849 0.597077,-0.9453 0.547981,-1.85414 -0.05335,-0.98768 -0.338918,-1.45861 -1.050586,-1.73253 -0.31124,-0.1198 -0.608672,-0.15376 -1.848207,-0.21105 -0.812499,-0.0376 -1.528543,-0.0486 -1.591213,-0.0246 -0.104695,0.0402 -0.112096,0.21318 -0.0912,2.13221 0.01252,1.14867 0.04705,2.13935 0.07677,2.20151 0.09223,0.19294 0.602361,0.22346 2.012254,0.12036 z"
         id="path1525" />
      <path
         style="fill:#040000;fill-opacity:1;stroke:#170000;stroke-width:0.06681738;stroke-opacity:1"
         d="m 94.597701,136.1311 c -2.682719,-0.45315 -5.268552,-0.89472 -5.746295,-0.98127 l -0.868627,-0.15736 -0.01836,-1.08724 c -0.02135,-1.26457 -0.05145,-1.21487 0.65871,-1.08796 0.734816,0.13132 10.692137,2.26009 10.724925,2.29288 0.05044,0.0504 0.294367,1.40622 0.294367,1.63615 0,0.13157 -0.03295,0.2156 -0.08352,0.213 -0.04594,-0.002 -2.278472,-0.37504 -4.961188,-0.8282 z"
         id="path1527" />
      <path
         style="fill:#040000;fill-opacity:1;stroke:#170000;stroke-width:0.06681738;stroke-opacity:1"
         d="m 96.902899,140.05764 c -0.993648,-0.076 -8.557074,-0.76145 -8.736372,-0.79169 l -0.217157,-0.0366 0.0011,-1.21639 c 5.29e-4,-0.66901 0.02864,-1.26005 0.0624,-1.31342 0.05255,-0.083 0.702987,-0.008 4.518377,0.523 2.451348,0.34101 4.526573,0.64648 4.611613,0.67881 0.08504,0.0323 0.198202,0.14307 0.251471,0.24608 0.08378,0.162 0.243633,1.34381 0.243633,1.80116 0,0.16701 0.0075,0.16591 -0.734991,0.10908 z"
         id="path1529" />
      <path
         style="fill:#040000;fill-opacity:1;stroke:#170000;stroke-width:0.06681738;stroke-opacity:1"
         d="m 87.94937,142.50533 v -1.54089 l 0.283975,0.0382 c 0.307644,0.0414 1.906397,0.14356 6.330947,0.40451 2.656219,0.15665 3.952865,0.23969 5.359302,0.3432 l 0.581866,0.0428 0.0697,0.34141 c 0.0896,0.43842 0.3344,1.79592 0.33572,1.86151 5.3e-4,0.0276 -2.915566,0.0501 -6.480273,0.0501 H 87.94937 Z"
         id="path1531" />
      <path
         style="fill:#040000;fill-opacity:1;stroke:#170000;stroke-width:0.06681738;stroke-opacity:1"
         d="m 104.74769,143.9293 c 0.8823,-2.85317 2.93135,-9.35683 3.19457,-10.13954 l 0.35953,-1.06908 0.31606,0.004 c 0.39551,0.005 0.47606,0.0849 0.67757,0.66888 0.16344,0.47367 2.63895,8.45161 3.06174,9.86724 l 0.23448,0.78511 h -0.32506 c -0.40303,0 -0.36865,0.0588 -0.89832,-1.5368 l -0.41034,-1.23612 h -2.32346 -2.32346 l -0.15558,0.50113 c -0.0856,0.27562 -0.2801,0.89953 -0.43228,1.38646 l -0.27671,0.88533 h -0.36744 c -0.31919,0 -0.36271,-0.0154 -0.3313,-0.11693 z m 5.85278,-3.54358 c 0,-0.34142 -0.23961,-1.27293 -1.00057,-3.88986 -0.54517,-1.87484 -0.72997,-2.33861 -0.9319,-2.33861 -0.0747,0 -0.17903,0.0677 -0.23189,0.15034 -0.18888,0.29549 -1.40143,4.48758 -1.73726,6.00617 -0.0711,0.32155 0.2072,0.36487 2.44834,0.38109 l 1.45328,0.0105 z"
         id="path1533" />
      <path
         style="fill:#040000;fill-opacity:1;stroke:#170000;stroke-width:0.06681738;stroke-opacity:1"
         d="m 104.39353,144.31928 c -0.14026,-0.0888 -0.082,-0.33548 0.66385,-2.81211 1.75517,-5.82802 2.75954,-8.96743 2.90837,-9.09095 0.0694,-0.0576 0.31542,-0.0799 0.78063,-0.0707 0.37362,0.007 0.68969,0.0237 0.70238,0.0364 0.0408,0.0408 2.54516,8.16928 3.0173,9.79342 0.25106,0.86362 0.47719,1.69398 0.50252,1.84525 0.0418,0.24956 0.0317,0.27888 -0.10866,0.31647 -0.19857,0.0532 -1.04206,0.0434 -1.24831,-0.0145 -0.13944,-0.0391 -0.20745,-0.20243 -0.57461,-1.37979 l -0.41644,-1.33544 -1.97063,-0.0177 -1.97062,-0.0177 -0.28551,0.95312 c -0.38901,1.29865 -0.5219,1.6363 -0.69045,1.75436 -0.16073,0.11258 -1.14752,0.14254 -1.30982,0.0398 z m 1.54178,-1.61116 c 0.24046,-0.77271 0.41716,-1.41732 0.39267,-1.43245 -0.0245,-0.0151 -0.23832,0.60458 -0.47519,1.37714 l -0.43067,1.40466 -0.28727,-0.0312 c -0.158,-0.0172 -0.30312,-0.0471 -0.3225,-0.0664 -0.0343,-0.0343 1.81964,-6.00721 2.95475,-9.51921 0.62949,-1.94762 0.51274,-1.76598 1.0619,-1.65208 0.10647,0.0221 0.21181,0.12416 0.29305,0.28397 0.11314,0.2226 1.72183,5.32987 2.9198,9.26985 0.24582,0.80849 0.47415,1.5226 0.5074,1.58691 0.0506,0.0979 0.0302,0.11678 -0.12566,0.11602 -0.31743,-0.002 -0.46722,-0.0704 -0.55553,-0.25532 -0.0468,-0.0979 -0.27433,-0.71931 -0.50568,-1.3808 -0.23135,-0.66149 -0.42226,-1.16233 -0.42423,-1.11298 -0.007,0.16482 0.72944,2.37944 0.86401,2.59967 0.12417,0.20321 0.15664,0.21716 0.50567,0.21716 0.32422,0 0.36834,-0.0153 0.33742,-0.11694 -0.0195,-0.0643 -0.14374,-0.47774 -0.27596,-0.91874 -0.13223,-0.44099 -0.81313,-2.65097 -1.51312,-4.91107 -0.69999,-2.2601 -1.31741,-4.25961 -1.37205,-4.44336 -0.20263,-0.68148 -0.35451,-0.95608 -0.57043,-1.03135 -0.11223,-0.0391 -0.30196,-0.0711 -0.42162,-0.0711 -0.21186,0 -0.22281,0.0145 -0.41695,0.55124 -0.21093,0.58319 -1.16923,3.60226 -2.44432,7.7007 -0.42304,1.35974 -0.81594,2.60381 -0.87312,2.76462 -0.16502,0.46411 -0.15705,0.47603 0.31824,0.47603 h 0.42219 z m 1.72519,-2.06958 c -0.0551,-0.0356 -0.2563,-0.0652 -0.44707,-0.0658 -0.19076,-5.3e-4 -0.36543,-0.0311 -0.38814,-0.0678 -0.0227,-0.0367 -0.0756,-0.0668 -0.11753,-0.0668 -0.1683,0 0.0851,0.15507 0.33129,0.20273 0.39699,0.0769 0.74195,0.0756 0.62145,-0.002 z m 2.93997,-0.2867 c 0,-0.50603 -1.21033,-4.91088 -1.59692,-5.8118 -0.23328,-0.54365 -0.47876,-0.50829 -0.72537,0.1045 -0.22389,0.55633 -1.2567,4.182 -1.57897,5.54298 -0.0239,0.10106 -0.0201,0.18375 0.008,0.18375 0.0286,0 0.10752,-0.24806 0.17537,-0.55124 0.14873,-0.6645 1.155,-4.19873 1.42208,-4.9946 0.23487,-0.69992 0.37,-0.75202 0.61563,-0.23738 0.23436,0.49102 1.55387,5.14909 1.59525,5.63147 l 0.0357,0.4162 -1.36208,0.0196 -1.36209,0.0196 1.38646,0.0152 1.38646,0.0152 z m -0.4009,-0.14868 c 0,-0.10733 -1.42721,-5.02021 -1.47252,-5.06887 -0.0562,-0.0603 -0.47392,1.20144 -1.05914,3.19905 -0.52541,1.79342 -0.53341,1.82374 -0.49207,1.86508 0.0482,0.0482 3.02373,0.0529 3.02373,0.005 z"
         id="path1535" />
      <path
         style="fill:#040000;fill-opacity:1;stroke:#170000;stroke-width:0.06681738;stroke-opacity:1"
         d="m 117.81675,138.40016 v -5.64607 h 0.45622 0.45621 l 1.37772,3.35757 1.37772,3.35758 h 0.21271 c 0.18806,0 0.23682,-0.0426 0.4208,-0.3675 0.11446,-0.20212 0.76495,-1.70551 1.44555,-3.34087 l 1.23745,-2.97337 0.41663,-0.0199 0.41662,-0.0199 v 5.64925 5.64926 h -0.33409 -0.33408 l -0.003,-0.41761 c -0.0177,-2.26837 -0.13791,-8.00849 -0.1707,-8.15172 -0.0232,-0.10106 -0.0858,-0.18375 -0.13916,-0.18375 -0.11436,0 -0.65674,1.11871 -1.58736,3.27405 -0.79331,1.83733 -1.24469,2.80633 -1.30725,2.80633 -0.0551,0 -0.29346,-0.51669 -1.24814,-2.7061 -0.84854,-1.94596 -1.51098,-3.33752 -1.62124,-3.40566 -0.22654,-0.14001 -0.23713,0.0503 -0.23713,4.2612 0,2.28567 -0.0258,4.23845 -0.0574,4.33951 -0.0533,0.17064 -0.0831,0.18375 -0.41761,0.18375 h -0.36025 z"
         id="path1537" />
      <path
         style="fill:#040000;fill-opacity:1;stroke:#170000;stroke-width:0.06681738;stroke-opacity:1"
         d="m 117.48273,141.6241 c 5e-5,-1.51592 0.02,-4.22202 0.0443,-6.01357 l 0.0442,-3.25734 h 0.64691 c 0.53145,0 0.66569,0.0209 0.75219,0.11693 0.1336,0.14838 0.86549,1.82318 1.92637,4.40818 0.45584,1.11071 0.84383,2.01945 0.8622,2.01942 0.0184,-2e-5 0.46733,-1.05912 0.99767,-2.35355 0.53034,-1.29443 1.14647,-2.76785 1.36917,-3.27428 l 0.4049,-0.92078 0.73296,0.0187 0.73296,0.0187 0.0556,0.23386 c 0.0306,0.12862 0.0618,2.76971 0.0694,5.8691 l 0.0139,5.63523 -0.15774,0.12776 c -0.12678,0.10269 -0.26572,0.12777 -0.70793,0.12777 -0.86819,0 -0.80567,0.23161 -0.80001,-2.96376 0.003,-1.47527 0.0266,-3.2536 0.0534,-3.95184 l 0.0486,-1.26953 -0.99566,2.3052 c -1.14423,2.64916 -1.36582,3.10873 -1.54517,3.20471 -0.20017,0.10714 -0.50691,0.0822 -0.62748,-0.0511 -0.14564,-0.16093 -0.54055,-1.02089 -1.45585,-3.1703 -0.41861,-0.98303 -0.78013,-1.78734 -0.80338,-1.78737 -0.0233,-3e-5 -0.0646,1.71049 -0.0919,3.80115 l -0.0496,3.8012 -0.24224,0.0401 c -0.13323,0.022 -0.47527,0.0404 -0.76007,0.0408 l -0.51784,7.9e-4 z m 1.14773,2.3052 c 0.10114,-0.24645 0.16567,-4.09257 0.0687,-4.09257 -0.0452,0 -0.0766,0.697 -0.0914,2.03243 -0.0124,1.11784 -0.0396,2.04939 -0.0603,2.07011 -0.0208,0.0207 -0.20117,0.0648 -0.4009,0.0979 l -0.36316,0.0602 0.38585,0.008 c 0.36127,0.007 0.39066,-0.004 0.46127,-0.17594 z m 7.07074,-5.53207 v -5.71581 l -0.47396,0.0196 -0.47396,0.0196 -1.25104,3.00679 c -1.33883,3.2178 -1.41801,3.39399 -1.6291,3.62484 -0.0756,0.0827 -0.1042,0.15034 -0.0635,0.15034 0.19392,0 0.42791,-0.49973 2.03366,-4.34313 0.51434,-1.23111 0.95487,-2.25712 0.97895,-2.28002 0.0241,-0.0229 0.21667,-0.0583 0.42798,-0.0787 l 0.3842,-0.0371 v 5.64124 5.64124 h -0.33409 -0.33408 l -5.3e-4,-1.25282 c -8e-4,-1.67312 -0.0656,-4.5818 -0.10312,-4.61935 -0.0431,-0.0431 -0.0368,1.71896 0.0143,3.98458 l 0.044,1.95441 h 0.39014 0.39014 v -5.71582 z m -3.10256,1.40506 c 1.07567,-2.46558 1.83705,-4.15106 1.94439,-4.30431 0.0974,-0.13908 0.1063,-0.14022 0.19369,-0.025 0.10049,0.13254 0.12959,0.0437 0.0348,-0.10608 -0.0325,-0.0513 -0.10363,-0.0761 -0.15811,-0.0552 -0.12225,0.0469 -0.57911,0.97844 -1.41915,2.89365 -0.97257,2.21736 -1.38157,3.10137 -1.43489,3.10137 -0.0266,0 -0.47753,-0.96969 -1.00213,-2.15486 -1.63069,-3.68404 -1.86908,-4.13269 -2.04479,-3.84838 -0.0273,0.0442 -0.0185,0.0591 0.0205,0.035 0.1625,-0.10042 0.43885,0.43995 1.66831,3.26215 0.38423,0.88199 0.83709,1.89824 1.00636,2.25833 0.29724,0.63233 0.31191,0.65057 0.42897,0.53351 0.0667,-0.0667 0.40959,-0.78223 0.76207,-1.59016 z m -1.42905,-1.28543 c -0.20731,-0.50518 -0.82852,-2.01598 -1.38046,-3.35734 l -1.00353,-2.43884 -0.50113,-0.007 -0.50113,-0.007 0.46395,0.0399 0.46396,0.04 1.37352,3.35077 c 0.75544,1.84292 1.39337,3.33869 1.41763,3.32393 0.0243,-0.0148 -0.12551,-0.44016 -0.33281,-0.94534 z m 3.71181,-1.50518 c -0.014,-0.15507 -0.0253,-0.0114 -0.0251,0.3194 2e-4,0.33075 0.0117,0.45763 0.0255,0.28196 0.0138,-0.17567 0.0137,-0.44628 -5.3e-4,-0.60136 z m -6.21373,-0.8332 c -0.0138,-0.17456 -0.025,-0.0317 -0.025,0.31738 0,0.34912 0.0113,0.49195 0.025,0.31739 0.0138,-0.17456 0.0138,-0.46021 0,-0.63477 z m 6.14709,-0.29891 c -0.0141,-0.15716 -0.0259,-0.0452 -0.0261,0.2488 -2.6e-4,0.294 0.0113,0.42258 0.0257,0.28574 0.0144,-0.13684 0.0145,-0.37739 5.2e-4,-0.53454 z"
         id="path1539" />
      <path
         style="fill:#040000;fill-opacity:1;stroke:#170000;stroke-width:0.06681738;stroke-opacity:1"
         d="m 104.3416,144.27435 c -0.0224,-0.0583 -0.003,-0.27276 0.0423,-0.47664 0.10436,-0.46632 0.95807,-3.30548 2.07506,-6.90094 1.07768,-3.46894 1.36963,-4.33938 1.4987,-4.46846 0.0809,-0.0809 0.24504,-0.0988 0.78534,-0.0856 0.37572,0.009 0.69608,0.0296 0.71192,0.0454 0.0842,0.0842 3.10314,9.97454 3.39841,11.13349 0.22205,0.87157 0.23207,0.85626 -0.56136,0.85774 -0.86593,0.002 -0.80209,0.0728 -1.25718,-1.40214 -0.34013,-1.10237 -0.41827,-1.29214 -0.55318,-1.34343 -0.0864,-0.0329 -0.97575,-0.0597 -1.97631,-0.0597 h -1.81921 l -0.28882,0.98555 c -0.34627,1.18163 -0.51324,1.59342 -0.69877,1.72337 -0.20641,0.14458 -1.30078,0.13767 -1.35689,-0.009 z m 0.74644,-0.20987 c -0.11025,-0.0157 -0.22481,-0.0521 -0.25458,-0.0809 -0.0298,-0.0288 0.1008,-0.56016 0.29014,-1.18086 0.46928,-1.53839 0.47872,-1.57198 0.45025,-1.60045 -0.0413,-0.0413 -0.91484,2.79841 -0.87875,2.85681 0.0183,0.0297 0.15934,0.0494 0.31336,0.0439 0.226,-0.008 0.24135,-0.0155 0.0796,-0.0385 z m 7.06234,-0.0271 c -0.24781,-0.0714 -0.31862,-0.20327 -0.69522,-1.29438 -0.1207,-0.34971 -0.22812,-0.60985 -0.23871,-0.57809 -0.0266,0.0797 0.56312,1.73897 0.65909,1.8546 0.0427,0.0515 0.17168,0.0908 0.28661,0.0875 l 0.20898,-0.006 -0.22075,-0.0636 z m -6.56693,-0.2584 c -0.002,-0.0661 -0.0232,-0.0547 -0.0611,0.0334 -0.0789,0.18368 -0.0789,0.28918 0,0.16704 0.0356,-0.0551 0.0631,-0.14533 0.0611,-0.20045 z m 6.79991,-0.61389 c -0.0213,-0.0533 -0.0372,-0.0375 -0.0404,0.0404 -0.003,0.0704 0.0129,0.1099 0.0351,0.0877 0.0222,-0.0222 0.0246,-0.0798 0.005,-0.12807 z m -6.47027,-0.45519 c 0,-0.0551 -0.0405,0.005 -0.0901,0.13363 -0.0495,0.12863 -0.0901,0.27897 -0.0901,0.33409 0,0.0551 0.0405,-0.005 0.0901,-0.13363 0.0495,-0.12863 0.0901,-0.27897 0.0901,-0.33409 z m 6.21811,-0.39483 c -0.0452,-0.15081 -0.0945,-0.2619 -0.10949,-0.24687 -0.015,0.015 0.01,0.15072 0.0548,0.30154 0.0452,0.15081 0.0945,0.2619 0.10948,0.24687 0.015,-0.015 -0.01,-0.15073 -0.0548,-0.30154 z m -0.26727,-0.86863 c -0.0452,-0.15081 -0.0945,-0.2619 -0.10949,-0.24687 -0.015,0.015 0.01,0.15073 0.0548,0.30154 0.0452,0.15082 0.0944,0.26191 0.10949,0.24688 0.015,-0.015 -0.01,-0.15073 -0.0548,-0.30155 z m -5.95104,-1.2756 c 0,-0.0551 -0.0555,0.0501 -0.12327,0.23386 -0.0678,0.18375 -0.12328,0.37919 -0.12328,0.43431 0,0.0551 0.0555,-0.0501 0.12328,-0.23386 0.0678,-0.18375 0.12327,-0.37919 0.12327,-0.43431 z m 5.68377,0.40698 c -0.0452,-0.15081 -0.0945,-0.26191 -0.10949,-0.24687 -0.015,0.015 0.01,0.15072 0.0548,0.30154 0.0452,0.15081 0.0944,0.2619 0.10949,0.24687 0.015,-0.015 -0.01,-0.15073 -0.0548,-0.30154 z m -4.25227,0.0169 c -0.0452,-0.0183 -0.13544,-0.0194 -0.20045,-0.002 -0.065,0.0169 -0.028,0.0319 0.0822,0.0333 0.11025,10e-4 0.16344,-0.0125 0.1182,-0.0308 z m 2.82924,-0.474 c -0.194,-0.64931 -1.33508,-4.62998 -1.36017,-4.74502 -0.0181,-0.0832 -0.058,-0.1668 -0.0886,-0.1857 -0.10433,-0.0645 -1.57663,4.76827 -1.50753,4.94835 0.0321,0.0837 0.26993,0.0993 1.51469,0.0993 1.37503,0 1.47418,-0.008 1.44164,-0.11693 z m 1.19047,-0.31261 c -0.0246,-0.0979 -0.0576,-0.16516 -0.0733,-0.1494 -0.0157,0.0157 -0.009,0.10875 0.0161,0.20667 0.0246,0.0979 0.0576,0.16516 0.0733,0.1494 0.0157,-0.0157 0.009,-0.10875 -0.0161,-0.20667 z m -5.11712,-0.70636 c 0,-0.0551 -0.0555,0.0501 -0.12328,0.23386 -0.0678,0.18375 -0.12327,0.37919 -0.12327,0.43432 0,0.0551 0.0555,-0.0501 0.12327,-0.23386 0.0678,-0.18375 0.12328,-0.37919 0.12328,-0.43432 z m 0.85781,-0.27979 c -0.0213,-0.0533 -0.0372,-0.0375 -0.0404,0.0404 -0.003,0.0704 0.0129,0.1099 0.0351,0.0877 0.0222,-0.0222 0.0246,-0.0798 0.005,-0.12806 z m 3.92522,-0.0829 c -0.0246,-0.0979 -0.0576,-0.16515 -0.0733,-0.1494 -0.0157,0.0157 -0.009,0.10875 0.0161,0.20667 0.0246,0.0979 0.0576,0.16516 0.0733,0.14941 0.0157,-0.0157 0.009,-0.10876 -0.0161,-0.20668 z m -4.44894,-0.70635 c 0,-0.0551 -0.0555,0.0501 -0.12328,0.23386 -0.0678,0.18374 -0.12328,0.37918 -0.12328,0.43431 0,0.0551 0.0555,-0.0501 0.12328,-0.23386 0.0678,-0.18375 0.12328,-0.37919 0.12328,-0.43431 z m 3.59732,0.52201 c -0.0213,-0.0533 -0.0372,-0.0375 -0.0404,0.0404 -0.003,0.0704 0.0129,0.10991 0.0351,0.0877 0.0222,-0.0222 0.0246,-0.0798 0.005,-0.12806 z m -2.87314,-0.46773 c -0.0213,-0.0533 -0.0372,-0.0375 -0.0404,0.0404 -0.003,0.0704 0.0129,0.1099 0.0351,0.0877 0.0222,-0.0222 0.0246,-0.0798 0.005,-0.12807 z m 2.73951,0 c -0.0213,-0.0533 -0.0372,-0.0375 -0.0404,0.0404 -0.003,0.0704 0.0129,0.1099 0.0351,0.0877 0.0222,-0.0222 0.0246,-0.0798 0.005,-0.12807 z m 0.71798,-0.21655 c -0.0246,-0.0979 -0.0576,-0.16516 -0.0733,-0.14941 -0.0157,0.0157 -0.009,0.10875 0.0161,0.20668 0.0246,0.0979 0.0576,0.16515 0.0733,0.1494 0.0157,-0.0157 0.009,-0.10875 -0.0161,-0.20667 z m -0.80181,-0.13364 c -0.0246,-0.0979 -0.0576,-0.16515 -0.0733,-0.1494 -0.0157,0.0157 -0.009,0.10875 0.0161,0.20667 0.0246,0.0979 0.0576,0.16515 0.0733,0.14941 0.0157,-0.0157 0.009,-0.10876 -0.0161,-0.20668 z m -2.52205,-0.11753 c -0.0213,-0.0533 -0.0372,-0.0375 -0.0404,0.0404 -0.003,0.0704 0.0129,0.1099 0.0351,0.0877 0.0222,-0.0222 0.0246,-0.0798 0.005,-0.12807 z m -0.52372,-0.65564 c 0,-0.0551 -0.0555,0.0501 -0.12328,0.23386 -0.0678,0.18375 -0.12328,0.37919 -0.12328,0.43431 0,0.0551 0.0555,-0.0501 0.12328,-0.23386 0.0678,-0.18375 0.12328,-0.37919 0.12328,-0.43431 z m 2.91214,0.30545 c -0.0246,-0.0979 -0.0576,-0.16516 -0.0733,-0.14941 -0.0157,0.0157 -0.009,0.10876 0.0161,0.20668 0.0246,0.0979 0.0576,0.16515 0.0733,0.1494 0.0157,-0.0157 0.009,-0.10875 -0.0161,-0.20667 z m 0.62899,-0.36172 c -0.0793,-0.26371 -0.15628,-0.46735 -0.1711,-0.45253 -0.0148,0.0148 0.0384,0.24219 0.11835,0.50528 0.0799,0.26309 0.1569,0.46673 0.17109,0.45254 0.0142,-0.0142 -0.0391,-0.24157 -0.11834,-0.50529 z m -2.88378,0.24419 c -0.0213,-0.0533 -0.0372,-0.0375 -0.0404,0.0404 -0.003,0.0704 0.0129,0.1099 0.0351,0.0877 0.0222,-0.0222 0.0246,-0.0798 0.005,-0.12807 z m 0.14542,-0.45519 c 0,-0.0632 -0.0212,-0.0508 -0.0574,0.0334 -0.0316,0.0735 -0.0574,0.17873 -0.0574,0.23386 0,0.0632 0.0212,0.0508 0.0574,-0.0334 0.0316,-0.0735 0.0574,-0.17874 0.0574,-0.23386 z m 1.97573,0.105 c -0.0246,-0.0979 -0.0576,-0.16516 -0.0733,-0.14941 -0.0157,0.0157 -0.009,0.10876 0.0161,0.20668 0.0246,0.0979 0.0576,0.16515 0.0733,0.1494 0.0157,-0.0157 0.009,-0.10875 -0.016,-0.20667 z m -1.46306,-3.82828 0.11464,-0.3002 0.27395,0.0438 c 0.15067,0.0241 0.32791,0.0926 0.39386,0.15233 0.0682,0.0617 0.35545,0.83834 0.66566,1.79959 0.30015,0.93008 0.55759,1.6792 0.57209,1.6647 0.0521,-0.0521 -0.99978,-3.27628 -1.12724,-3.45528 -0.17698,-0.24854 -0.70144,-0.34181 -0.8424,-0.14982 -0.094,0.12798 -1.29376,3.74513 -1.28298,3.86792 0.003,0.0368 0.25604,-0.69586 0.56182,-1.62802 0.30577,-0.93216 0.60754,-1.82992 0.6706,-1.99503 z m 1.32943,3.36055 c -0.0246,-0.0979 -0.0576,-0.16515 -0.0733,-0.1494 -0.0157,0.0157 -0.009,0.10875 0.0161,0.20668 0.0246,0.0979 0.0576,0.16515 0.0733,0.1494 0.0157,-0.0157 0.009,-0.10875 -0.0161,-0.20668 z m -1.72025,-0.11752 c -0.0213,-0.0533 -0.0372,-0.0375 -0.0404,0.0404 -0.003,0.0704 0.0129,0.1099 0.0351,0.0877 0.0222,-0.0222 0.0246,-0.0798 0.005,-0.12807 z m 1.5368,-0.46772 c -0.0213,-0.0533 -0.0372,-0.0375 -0.0404,0.0404 -0.003,0.0704 0.0129,0.10991 0.0351,0.0877 0.0222,-0.0222 0.0246,-0.0798 0.005,-0.12806 z m -1.33635,-0.20046 c -0.0213,-0.0533 -0.0372,-0.0375 -0.0404,0.0404 -0.003,0.0704 0.0129,0.1099 0.0351,0.0877 0.0222,-0.0222 0.0246,-0.0798 0.005,-0.12807 z m 0.82299,-1.21541 c 0,-0.0139 -0.0526,-0.0665 -0.11693,-0.11693 -0.10598,-0.0831 -0.10834,-0.0807 -0.0252,0.0252 0.0873,0.1113 0.14216,0.14669 0.14216,0.0917 z"
         id="path1541" />
      <path
         style="fill:#040000;fill-opacity:1;stroke:#170000;stroke-width:0.06681738;stroke-opacity:1"
         d="m 93.361579,140.03625 c -4.772036,-0.44279 -5.471721,-0.5263 -5.61562,-0.6702 -0.150022,-0.15002 -0.233863,-1.16341 -0.170651,-2.06267 0.07239,-1.02976 0.02405,-0.96704 0.707813,-0.9185 1.04135,0.0739 8.5545,1.13957 9.183613,1.30259 0.179864,0.0466 0.21259,0.0945 0.284422,0.41609 0.04465,0.19988 0.13194,0.74602 0.193985,1.21365 0.09135,0.68848 0.09672,0.86963 0.02824,0.95215 -0.129244,0.15573 -0.770728,0.1233 -4.611798,-0.23311 z m 4.340857,-0.11599 c -0.0013,-0.13782 -0.04248,-0.5918 -0.09162,-1.00885 -0.134266,-1.13943 0.09395,-1.0259 -2.925123,-1.45516 -2.415,-0.34337 -2.85202,-0.39469 -2.784263,-0.32693 0.01765,0.0177 1.187794,0.19964 2.600309,0.4044 1.494565,0.21666 2.628527,0.41172 2.71249,0.4666 0.157737,0.1031 0.253579,0.45095 0.321876,1.16824 0.02275,0.23887 0.05631,0.53203 0.0746,0.65147 0.03294,0.21512 0.03068,0.21716 -0.240994,0.21716 -0.165811,0 -0.257913,0.0264 -0.232944,0.0668 0.0227,0.0367 0.15979,0.0668 0.30462,0.0668 0.260146,0 0.2633,-0.003 0.261054,-0.25056 z m -0.900308,0.11585 c -0.147299,-0.0293 -0.553215,-0.0742 -0.902036,-0.0997 -0.89879,-0.0658 -1.08553,-0.0816 -1.836931,-0.15467 -0.367496,-0.0358 -0.713274,-0.0633 -0.7684,-0.0612 -0.05512,0.002 -0.243049,-0.0179 -0.417608,-0.0443 -0.178694,-0.0271 -0.317384,-0.0219 -0.317384,0.0119 0,0.033 0.804315,0.12692 1.787367,0.20872 0.983051,0.0818 1.832467,0.1584 1.88759,0.17021 0.05512,0.0118 0.265599,0.0217 0.467722,0.0219 0.361675,5.3e-4 0.363255,-5.3e-4 0.09968,-0.0528 z m -4.314743,-0.35786 c -0.07819,-0.0698 -0.662607,-0.11041 -0.662607,-0.0461 0,0.0409 0.146333,0.0709 0.345223,0.0709 0.189873,0 0.332695,-0.0112 0.317384,-0.0249 z m -0.734992,-0.0668 c -0.07819,-0.0698 -0.662606,-0.11041 -0.662606,-0.0461 0,0.0409 0.146333,0.0709 0.345223,0.0709 0.189873,0 0.332695,-0.0112 0.317383,-0.0248 z m -0.734991,-0.0668 c -0.07819,-0.0698 -0.662607,-0.11041 -0.662607,-0.0461 0,0.0409 0.146333,0.0709 0.345223,0.0709 0.189873,0 0.332695,-0.0112 0.317384,-0.0248 z m -0.734991,-0.0668 c -0.07819,-0.0698 -0.662607,-0.11041 -0.662607,-0.0461 0,0.0409 0.146333,0.0709 0.345226,0.0709 0.18987,0 0.332692,-0.0112 0.317381,-0.0248 z m -0.929876,-0.10758 c -0.397629,-0.0887 -1.135896,-0.13357 -1.135896,-0.069 0,0.0605 0.397005,0.10475 1.035669,0.11555 0.309896,0.005 0.317154,0.002 0.100227,-0.0465 z m -1.294037,-0.11559 c -0.117867,-0.0303 -0.122563,-0.0989 -0.08526,-1.24507 0.02172,-0.66716 0.04026,-1.23784 0.04122,-1.26818 0.0011,-0.0303 0.204692,-0.0398 0.452752,-0.0211 0.457581,0.0345 2.837114,0.34671 3.173825,0.41637 0.101063,0.0209 0.183748,0.0116 0.183748,-0.0208 0,-0.0506 -3.44932,-0.5614 -3.750125,-0.55537 -0.159279,0.003 -0.1921,0.27327 -0.1921,1.58074 v 1.16095 l 0.150338,-0.008 c 0.124749,-0.006 0.129109,-0.0132 0.02561,-0.0398 z"
         id="path1543" />
      <path
         style="fill:#040000;fill-opacity:1;stroke:#170000;stroke-width:0.06681738;stroke-opacity:1"
         d="m 99.107873,137.18573 c -0.09187,-0.0164 -2.106416,-0.35756 -4.476765,-0.75817 -5.469406,-0.92439 -6.899865,-1.1891 -6.963085,-1.28853 -0.02788,-0.0439 -0.05115,-0.65854 -0.05172,-1.36597 l -0.0011,-1.28624 h 0.389269 c 0.702508,0 11.42307,2.24054 11.618264,2.42815 0.09266,0.0891 0.440654,1.90525 0.408484,2.13185 -0.0191,0.13411 -0.06168,0.15162 -0.388887,0.15966 -0.202123,0.005 -0.442666,-0.004 -0.53454,-0.0207 z m 0.588719,-0.37378 c 0.01752,-0.14745 -0.228705,-1.7156 -0.27696,-1.76385 -0.03391,-0.0339 -10.434137,-2.23409 -10.910901,-2.30821 -0.424812,-0.066 -0.511714,-0.0632 -0.563223,0.0182 -0.0335,0.053 -0.06091,0.59238 -0.06091,1.19875 0,0.73615 0.02151,1.06919 0.06477,1.00226 0.03562,-0.0551 0.06523,-0.55876 0.06579,-1.11919 0.0011,-1.08001 -0.0098,-1.04691 0.335111,-1.0214 0.302149,0.0224 7.427066,1.51864 10.289876,2.16096 l 0.701582,0.15741 0.10672,0.56875 c 0.179946,0.95899 0.192947,1.12894 0.08941,1.16867 -0.05115,0.0196 -1.634623,-0.22248 -3.51884,-0.53801 -3.936764,-0.65926 -7.633361,-1.29196 -7.852497,-1.34402 -0.08269,-0.0196 -0.150339,-0.01 -0.150339,0.0225 0,0.032 0.187923,0.0904 0.417608,0.12985 6.026695,1.0339 11.090034,1.8751 11.175209,1.85661 0.03675,-0.008 0.07616,-0.0931 0.08759,-0.18924 z"
         id="path1545" />
      <path
         style="fill:#040000;fill-opacity:1;stroke:#170000;stroke-width:0.06681738;stroke-opacity:1"
         d="m 88.138669,144.33296 c -0.233659,-0.0159 -0.411485,-0.0654 -0.464404,-0.12913 -0.06409,-0.0772 -0.0866,-0.49152 -0.08907,-1.63966 l -0.0033,-1.53633 0.16188,-0.13118 c 0.147196,-0.11928 0.232043,-0.12759 0.935443,-0.0916 0.42546,0.0218 1.931175,0.0989 3.346034,0.17144 4.188828,0.21468 8.166518,0.46303 8.443858,0.52721 0.14231,0.0329 0.28694,0.0881 0.32141,0.12253 0.0675,0.0675 0.34758,1.52533 0.4214,2.19356 0.0394,0.35642 0.0295,0.41577 -0.0773,0.46666 -0.11767,0.0561 -12.22021,0.0993 -12.99592,0.0465 z m 12.839801,-0.30344 c -5.3e-4,-0.15992 -0.38782,-2.18032 -0.43141,-2.25086 -0.0242,-0.0391 -0.19999,-0.0675 -0.39076,-0.0632 l -0.346844,0.008 0.323914,0.0543 c 0.17815,0.0299 0.33352,0.064 0.34526,0.0757 0.0439,0.0439 0.3914,2.05657 0.36046,2.08751 -0.0177,0.0177 -2.925181,0.0526 -6.460985,0.0774 l -6.428735,0.0452 v -1.53916 -1.53915 l 0.144085,0.0377 c 0.09872,0.0258 0.129032,0.0133 0.09628,-0.0397 -0.0263,-0.0425 -0.106161,-0.0773 -0.17749,-0.0773 -0.124775,0 -0.129693,0.0608 -0.129693,1.60362 v 1.60362 h 6.548104 c 5.194098,0 6.548044,-0.0173 6.547814,-0.0835 z m -1.235832,-2.3219 c -0.0227,-0.0367 -0.227444,-0.0625 -0.454959,-0.0573 -0.383434,0.009 -0.394134,0.013 -0.146397,0.0573 0.415581,0.0744 0.647343,0.0744 0.601356,0 z m -0.935442,-0.0668 c 0.0263,-0.0425 -0.136142,-0.0632 -0.447075,-0.0568 -0.445397,0.009 -0.461912,0.0142 -0.18769,0.0568 0.465169,0.0723 0.590069,0.0723 0.634765,0 z m -1.03567,-0.0668 c 0,-0.0368 -0.112754,-0.067 -0.250565,-0.0671 -0.137811,-1.6e-4 -0.596345,-0.0194 -1.018966,-0.0427 -0.422619,-0.0233 -0.750724,-0.023 -0.729123,5.3e-4 0.02159,0.0237 0.382415,0.061 0.801809,0.083 0.419391,0.022 0.77506,0.0519 0.790371,0.0665 0.05992,0.057 0.406474,0.0226 0.406474,-0.0403 z m -2.138156,-0.13364 c 0,-0.0397 -0.210158,-0.0626 -0.517834,-0.0563 -0.487125,0.01 -0.498023,0.0132 -0.183748,0.0563 0.525227,0.072 0.701582,0.072 0.701582,0 z m -1.135896,-0.0668 c 0,-0.0393 -0.199329,-0.0627 -0.484425,-0.0568 -0.443651,0.009 -0.459116,0.014 -0.183748,0.0568 0.467717,0.0727 0.668173,0.0727 0.668173,0 z m -1.102487,-0.0668 c -0.0227,-0.0367 -0.257513,-0.0621 -0.521779,-0.0563 -0.470657,0.0103 -0.473649,0.0114 -0.146394,0.0563 0.531506,0.0729 0.713229,0.0729 0.668173,0 z m -1.135895,-0.0668 c -0.0227,-0.0368 -0.242478,-0.0623 -0.488368,-0.0568 -0.426919,0.01 -0.433517,0.0121 -0.146397,0.0568 0.473332,0.0736 0.680246,0.0736 0.634765,0 z m -1.102487,-0.0668 c -0.05512,-0.0356 -0.310701,-0.0603 -0.567947,-0.0549 l -0.467723,0.01 0.367496,0.045 c 0.605856,0.0743 0.783061,0.0743 0.668174,0 z m -1.069078,-0.0668 c 0,-0.0393 -0.19933,-0.0627 -0.484426,-0.0568 -0.443648,0.009 -0.459116,0.014 -0.183748,0.0568 0.467717,0.0727 0.668174,0.0727 0.668174,0 z m -1.03567,-0.0668 c -0.0227,-0.0368 -0.21241,-0.0629 -0.421552,-0.058 -0.340344,0.008 -0.355709,0.014 -0.146394,0.058 0.358277,0.0754 0.614555,0.0754 0.567946,0 z"
         id="path1547" />
      <path
         style="fill:#040000;fill-opacity:1;stroke:#170000;stroke-width:0.06681738;stroke-opacity:1"
         d="m 77.191772,144.32441 -0.300678,-0.0443 -0.03904,-0.93544 c -0.02146,-0.5145 -0.02408,-3.19805 -0.0058,-5.96346 l 0.03325,-5.028 h 2.299994 2.299991 l 0.661308,0.33969 c 1.04853,0.53859 1.431324,1.07109 1.613821,2.24496 0.06021,0.38731 0.05863,0.58769 -0.0072,0.91039 -0.104915,0.51444 -0.373739,1.12641 -0.658918,1.50002 -0.11951,0.15657 -0.217292,0.31071 -0.217292,0.34255 0,0.0318 0.08478,0.0748 0.188405,0.0956 0.290706,0.0581 0.974587,0.60942 1.310725,1.05659 0.37044,0.49279 0.499729,0.9016 0.546737,1.72876 0.09436,1.66042 -0.463791,2.82531 -1.600753,3.34083 -0.793236,0.35967 -1.205124,0.40903 -3.618939,0.43368 -1.212736,0.0124 -2.340279,0.003 -2.505652,-0.0218 z m 0.835218,-0.20753 c 0.240697,-0.0498 0.219107,-0.056 -0.217157,-0.063 l -0.484425,-0.008 v -5.71926 -5.71925 l 1.011774,0.0488 c 0.748446,0.0361 0.999578,0.0291 0.964909,-0.027 -0.03158,-0.0511 -0.372599,-0.0758 -1.045183,-0.0758 H 77.25859 v 5.81311 5.81311 l 0.250566,-0.004 c 0.137811,-0.002 0.370834,-0.0287 0.517834,-0.0591 z m 3.042835,-0.067 c 2.64408,-0.16201 3.405767,-0.88527 3.416941,-3.24457 0.0045,-0.9538 -0.10413,-1.41766 -0.433062,-1.84892 -0.294725,-0.38641 -0.792935,-0.75307 -1.261208,-0.92819 -0.595604,-0.22274 -0.602438,-0.26066 -0.136702,-0.75853 0.430863,-0.4606 0.586361,-0.80189 0.680116,-1.49277 0.07325,-0.53979 -0.02703,-1.29342 -0.231709,-1.74136 -0.429974,-0.94099 -1.187357,-1.3036 -2.905646,-1.39113 -0.987462,-0.0503 -1.061355,0.008 -0.100227,0.0794 1.050809,0.0778 1.309386,0.12016 1.737252,0.28454 0.73842,0.28369 1.161619,0.78814 1.342223,1.59992 0.227571,1.02289 0.0021,1.92798 -0.668097,2.68266 -0.172688,0.19444 -0.304807,0.40328 -0.2936,0.46409 0.01151,0.0625 0.295193,0.25283 0.652262,0.43768 1.251878,0.64808 1.505754,1.1008 1.502709,2.67966 -0.0032,1.66167 -0.359469,2.32344 -1.490912,2.76941 -0.573852,0.22619 -1.19331,0.2975 -3.249559,0.37406 -0.624742,0.0232 -1.148424,0.0546 -1.163735,0.0697 -0.04909,0.0484 1.599475,0.0258 2.602954,-0.0357 z m -2.75886,-0.61585 c -0.170048,-0.0621 -0.1841,-0.0953 -0.188444,-0.44574 -0.0026,-0.20825 -0.03296,-0.43877 -0.06751,-0.51227 -0.04198,-0.0893 -0.04962,0.0325 -0.02302,0.36749 0.04336,0.54606 0.103751,0.67095 0.320569,0.6629 0.120867,-0.004 0.114639,-0.0153 -0.04159,-0.0724 z m 0.769318,0.0306 c -0.08218,-0.0159 -0.232521,-0.0163 -0.334087,-7.9e-4 -0.101568,0.0153 -0.03433,0.0283 0.149419,0.0288 0.183747,5.3e-4 0.266848,-0.0121 0.184668,-0.0279 z m 1.686219,-0.0172 0.400904,-0.0497 -0.434313,-0.004 c -0.238871,-0.002 -0.584653,0.0195 -0.7684,0.0481 l -0.334087,0.052 0.367496,0.002 c 0.202123,7.9e-4 0.547904,-0.0207 0.7684,-0.0481 z m 0.902036,-0.0694 c 0.142668,-0.0457 0.126182,-0.0545 -0.112988,-0.0602 -0.154016,-0.004 -0.298614,0.0234 -0.321326,0.0602 -0.04813,0.0779 0.191141,0.0779 0.434314,0 z m 1.010161,-0.21302 c 0.538233,-0.22666 0.923014,-0.76525 1.017346,-1.42401 0.02792,-0.19498 -0.0016,-0.14394 -0.109289,0.18873 -0.08346,0.25791 -0.246414,0.57337 -0.375113,0.72618 -0.24376,0.28942 -0.794176,0.58677 -1.088146,0.58783 -0.09889,2.7e-4 -0.199573,0.0326 -0.223732,0.0717 -0.06183,0.10005 0.392446,0.0123 0.778934,-0.15046 z m -0.891384,-0.19188 c 0.844166,-0.10761 1.275794,-0.43685 1.420513,-1.08352 0.04635,-0.20712 0.06921,-0.68662 0.05508,-1.15523 -0.02956,-0.98027 -0.178175,-1.34956 -0.662585,-1.64648 -0.532612,-0.32647 -0.95817,-0.39639 -2.652331,-0.43576 l -1.553504,-0.0361 v 2.25291 2.25291 l 1.453277,-0.0434 c 0.799303,-0.0238 1.6721,-0.0713 1.939552,-0.10536 z m -2.545467,-4.6064 c 0.648687,0 1.166903,-0.0108 1.151591,-0.0241 -0.01532,-0.0133 -0.561546,-0.0434 -1.21385,-0.067 l -1.186008,-0.0429 0.01566,2.02142 0.01566,2.02143 0.01876,-1.95441 0.01876,-1.95441 z m 4.480036,2.18625 c -0.01402,-0.15508 -0.02532,-0.0113 -0.02511,0.3194 2.02e-4,0.33075 0.01167,0.45763 0.02548,0.28196 0.01381,-0.17567 0.01365,-0.44628 -5.29e-4,-0.60136 z m -0.01879,-0.49911 c -0.150453,-0.70316 -0.655817,-1.30119 -1.280501,-1.51528 -0.329335,-0.11288 -1.598039,-0.269 -1.806234,-0.22227 -0.06443,0.0145 0.138438,0.0492 0.450808,0.0773 0.836752,0.0751 1.39111,0.21876 1.761834,0.45665 0.364545,0.23393 0.685778,0.68191 0.751779,1.0484 0.045,0.24987 0.07941,0.33899 0.130892,0.33899 0.01691,0 0.01304,-0.0827 -0.0086,-0.18374 z m -5.41955,-2.47373 c -0.07939,-0.0635 -0.158584,-0.17558 -0.175996,-0.24908 -0.02421,-0.10214 -0.03349,-0.0911 -0.03941,0.0468 -0.0046,0.10763 0.03943,0.20791 0.10918,0.24853 0.189812,0.11056 0.262636,0.0789 0.106228,-0.0462 z m 0.964615,0.0699 c -0.136837,-0.0144 -0.377381,-0.0146 -0.534538,-5.3e-4 -0.157157,0.0141 -0.0452,0.0258 0.248799,0.0261 0.293997,2.4e-4 0.422579,-0.0113 0.285739,-0.0257 z m 0.950383,-0.0148 c 0.295381,-0.0526 0.292801,-0.0537 -0.146396,-0.0619 -0.245891,-0.005 -0.465656,0.0217 -0.488368,0.0584 -0.04852,0.0785 0.205036,0.0799 0.634764,0.003 z m 0.634765,-0.0702 c 0.119324,-0.0513 0.114379,-0.0579 -0.04617,-0.0621 -0.09889,-0.003 -0.198387,0.0254 -0.221099,0.0621 -0.0493,0.0798 0.08163,0.0798 0.267269,0 z m 0.734991,-0.18368 c 0.354005,-0.17328 0.76186,-0.62631 0.902674,-1.00267 0.09784,-0.26151 0.130334,-0.50049 0.122928,-0.9042 l -0.01005,-0.54873 -0.04665,0.60135 c -0.07179,0.92549 -0.349408,1.44027 -0.937397,1.73823 -0.180248,0.0913 -0.372049,0.16607 -0.426225,0.16607 -0.05418,0 -0.117833,0.0313 -0.141455,0.0695 -0.05378,0.087 0.254688,0.0182 0.536194,-0.11954 z m -1.904296,-0.0829 c 1.19743,-0.0717 1.603147,-0.17372 1.982869,-0.49874 0.37922,-0.3246 0.504151,-0.67004 0.508564,-1.4062 0.0043,-0.70795 -0.0921,-1.05505 -0.376084,-1.35488 -0.321268,-0.33921 -0.703191,-0.42418 -2.088176,-0.46457 l -1.20895,-0.0353 -0.0434,0.45964 c -0.02387,0.2528 -0.04361,1.11361 -0.04387,1.91291 -5.3e-4,1.34051 0.0086,1.45312 0.116456,1.45119 0.06431,-10e-4 0.58298,-0.03 1.152599,-0.0641 z m -1.6221,-0.75234 c -0.01482,-0.11944 -0.02695,-0.0217 -0.02695,0.21715 0,0.23888 0.01212,0.3366 0.02695,0.21716 0.01482,-0.11943 0.01482,-0.31488 0,-0.43431 z m 0.0016,-2.50202 c -0.01183,-0.39706 -0.02156,-0.0905 -0.02162,0.68125 -5.2e-5,0.77173 0.0096,1.0966 0.02151,0.72191 0.01188,-0.37468 0.01193,-1.00611 1.01e-4,-1.40316 z m 4.453175,0.37432 c -0.08408,-0.29964 -0.187597,-0.48913 -0.363108,-0.66464 -0.239533,-0.23953 -0.750539,-0.46878 -1.028155,-0.46126 -0.07614,0.002 0.05106,0.0638 0.28267,0.13714 0.649002,0.20556 0.949597,0.55313 1.112943,1.28686 0.02347,0.1054 0.05855,0.17575 0.07796,0.15634 0.01942,-0.0194 -0.01762,-0.22391 -0.08231,-0.45444 z m -3.828694,-1.2491 c -0.308954,-0.0111 -0.585719,0.004 -0.615032,0.0329 -0.02931,0.0291 0.22347,0.0382 0.561737,0.0201 l 0.615029,-0.0329 z m 1.563997,0.0494 c -0.183748,-0.0286 -0.469392,-0.0502 -0.634767,-0.0479 l -0.300678,0.004 0.300678,0.0468 c 0.165375,0.0257 0.451019,0.0472 0.634767,0.0479 l 0.334087,0.001 -0.334087,-0.052 z m 0.651468,0.0256 c -0.04594,-0.0186 -0.121105,-0.0186 -0.167042,0 -0.04594,0.0185 -0.0084,0.0337 0.08352,0.0337 0.09187,0 0.129458,-0.0152 0.08352,-0.0337 z"
         id="path1549" />
      <path
         style="fill:#040000;fill-opacity:1;stroke:#170000;stroke-width:0.06681738;stroke-opacity:1"
         d="m 77.115524,144.33641 -0.243292,-0.0301 -0.05025,-1.44968 c -0.02764,-0.79732 -0.03108,-2.47198 -0.0076,-3.72147 0.02342,-1.24948 0.04277,-3.28658 0.04298,-4.52688 l 2.64e-4,-2.25508 h 2.306534 2.306535 l 0.60126,0.30197 c 1.000964,0.50271 1.358106,0.91972 1.600978,1.86933 0.184147,0.72001 0.170746,1.1588 -0.05511,1.80433 -0.167418,0.47852 -0.314111,0.75245 -0.649452,1.2128 -0.101489,0.13932 -0.09364,0.14878 0.256257,0.30897 0.419732,0.19216 1.08005,0.81284 1.340747,1.26027 0.495718,0.85078 0.491709,2.62987 -0.0082,3.65098 -0.337875,0.6901 -1.130411,1.23345 -2.126125,1.45763 -0.35682,0.0803 -0.986179,0.10889 -2.767071,0.12552 -1.267859,0.0119 -2.41468,0.008 -2.54849,-0.009 z m 0.644197,-0.22544 c 0.09909,-0.0441 0.0516,-0.057 -0.183747,-0.0496 -0.174562,0.005 -0.317384,0.0343 -0.317384,0.0642 0,0.0711 0.330361,0.0615 0.501131,-0.0145 z m 2.156627,-0.0465 c -0.13684,-0.0144 -0.377383,-0.0146 -0.53454,-5.3e-4 -0.157158,0.0141 -0.0452,0.0259 0.248798,0.0261 0.293997,2.7e-4 0.422579,-0.0113 0.285742,-0.0257 z m 1.785599,-0.0826 c 0.2101,-0.0331 0.03652,-0.0399 -0.467723,-0.0183 -0.440994,0.0189 -0.814337,0.0452 -0.829648,0.0585 -0.05124,0.0444 0.959077,0.0131 1.297371,-0.0402 z m 0.651467,-0.11353 c -0.04594,-0.0186 -0.121105,-0.0186 -0.167042,0 -0.04594,0.0185 -0.0084,0.0337 0.08352,0.0337 0.09187,0 0.129458,-0.0152 0.08352,-0.0337 z m 0.656784,-0.17911 c 0.517353,-0.21283 0.841158,-0.47782 1.068768,-0.87464 0.106807,-0.18622 0.193149,-0.36864 0.191868,-0.40539 -0.0013,-0.0367 -0.06445,0.0534 -0.14038,0.20045 -0.26674,0.51641 -0.712952,0.8653 -1.45773,1.13981 -0.129683,0.0478 -0.190685,0.0883 -0.135562,0.09 0.05513,0.002 0.267991,-0.0659 0.473036,-0.15025 z m -1.458593,-0.35543 c -0.04594,-0.0185 -0.121105,-0.0185 -0.167042,0 -0.04594,0.0185 -0.0084,0.0337 0.08352,0.0337 0.09187,0 0.129458,-0.0152 0.08352,-0.0337 z m 0.633376,-0.0629 c -0.0222,-0.0222 -0.07983,-0.0246 -0.128069,-0.005 -0.0533,0.0213 -0.03747,0.0372 0.04037,0.0404 0.07044,0.003 0.1099,-0.0129 0.0877,-0.0351 z m -1.856486,-0.22708 c 2.042266,-0.0881 2.477629,-0.22395 2.764134,-0.86229 0.18833,-0.41962 0.230531,-1.74672 0.07257,-2.28216 -0.141941,-0.48112 -0.530457,-0.86123 -1.046022,-1.0234 -0.432662,-0.13609 -1.64017,-0.23691 -2.872769,-0.23987 l -0.851921,-0.002 v 2.23838 2.23838 l 0.217157,-0.001 c 0.119435,-5.3e-4 0.892019,-0.0303 1.716852,-0.0659 z m 2.876841,-0.30938 c 0.222274,-0.24114 0.217307,-0.23919 -0.100224,0.0393 -0.183748,0.16117 -0.349123,0.30701 -0.367496,0.3241 -0.01839,0.0171 0.02672,-5.3e-4 0.100224,-0.0393 0.0735,-0.0387 0.238874,-0.18455 0.367496,-0.32409 z m -5.099294,0.0966 c -0.02133,-0.0533 -0.03716,-0.0375 -0.04037,0.0404 -0.0029,0.0704 0.01289,0.1099 0.0351,0.0877 0.0222,-0.0222 0.02458,-0.0798 0.0053,-0.12806 z m 6.214018,-0.66818 c -0.02133,-0.0533 -0.03716,-0.0375 -0.04037,0.0404 -0.0029,0.0704 0.01288,0.1099 0.03509,0.0877 0.0222,-0.0222 0.02458,-0.0798 0.0053,-0.12807 z m 0.124264,-0.62987 c 0.08351,-0.89114 0.0094,-1.75141 -0.187928,-2.18249 -0.266086,-0.58121 -0.972521,-1.18176 -1.585598,-1.34794 -0.09187,-0.0249 0.05846,0.0793 0.334087,0.23149 0.87495,0.48322 1.207018,0.90125 1.333084,1.67819 0.08024,0.49449 0.08493,1.35613 0.0099,1.81213 -0.02873,0.17456 -0.0295,0.31739 -0.0016,0.31739 0.02779,0 0.07198,-0.22895 0.0982,-0.50877 z m -1.740117,-2.8321 c -0.0227,-0.0367 -0.07711,-0.0664 -0.120875,-0.0658 -0.04781,5.3e-4 -0.03957,0.0269 0.02064,0.0658 0.128365,0.083 0.151495,0.083 0.100226,0 z m -3.207234,-0.36728 c -0.166164,-0.0563 -1.503392,-0.0798 -1.503392,-0.0264 0,0.0328 0.353296,0.0572 0.785104,0.0543 0.431808,-0.003 0.755036,-0.0155 0.718288,-0.0279 z m 0.476284,-0.75513 c -0.105537,-0.0132 -0.218265,0.002 -0.250505,0.0347 -0.03361,0.0336 0.04825,0.0438 0.191889,0.0239 0.230598,-0.0319 0.235257,-0.0366 0.05862,-0.0586 z m -1.712407,0.0281 c 0,-0.0139 -0.05262,-0.0665 -0.11693,-0.11693 -0.105976,-0.0831 -0.108339,-0.0807 -0.02522,0.0252 0.08729,0.1113 0.142158,0.1467 0.142158,0.0917 z m 4.789437,-0.86649 c 0.163627,-0.31626 0.288052,-0.84155 0.279419,-1.17962 -0.0073,-0.28727 -0.01003,-0.2828 -0.06041,0.10023 -0.07789,0.59219 -0.28684,1.08229 -0.669435,1.57021 l -0.340564,0.43431 0.340974,-0.35718 c 0.187534,-0.19645 0.390044,-0.45202 0.450019,-0.56795 z m -2.68469,0.48463 c 1.363091,-0.14657 1.815553,-0.67182 1.760771,-2.04401 -0.03693,-0.92511 -0.324231,-1.32726 -1.061085,-1.48529 -0.182105,-0.0391 -0.837645,-0.0909 -1.456757,-0.11526 l -1.125659,-0.0443 -0.04389,0.76172 c -0.05603,0.97238 -0.05755,2.96477 -0.0024,3.02001 0.04908,0.0491 1.062275,2.6e-4 1.928934,-0.0929 z m 2.164083,-1.16312 c -7.94e-4,-0.0735 -0.04409,0.002 -0.0962,0.16705 -0.11689,0.37097 -0.114797,0.43057 0.0059,0.16704 0.05048,-0.11025 0.09113,-0.26059 0.09033,-0.33409 z m 0.710126,-1.54267 c -0.182917,-0.78872 -0.617339,-1.30957 -1.312604,-1.57375 -0.474273,-0.18021 -0.561816,-0.14954 -0.107002,0.0375 0.865285,0.35582 1.287034,0.92435 1.431234,1.92934 0.02745,0.19128 0.05994,0.28408 0.07221,0.20623 0.01228,-0.0779 -0.02545,-0.34755 -0.08384,-0.59931 z m -1.075741,-0.7019 c -0.0696,-0.0769 -0.18701,-0.17041 -0.260918,-0.20778 -0.07391,-0.0374 -0.02915,0.0243 0.09948,0.1371 0.27288,0.23929 0.341029,0.26912 0.16144,0.0707 z m -0.811638,-1.0399 c -0.04524,-0.0183 -0.135443,-0.0194 -0.200454,-0.002 -0.06501,0.0169 -0.028,0.0319 0.08225,0.0333 0.11025,0.001 0.163439,-0.0125 0.118203,-0.0308 z m -0.468074,-0.07 c -0.08218,-0.0158 -0.232522,-0.0163 -0.334087,-7.9e-4 -0.101568,0.0153 -0.03433,0.0283 0.149418,0.0288 0.183748,5.2e-4 0.266848,-0.0121 0.184669,-0.0279 z m -1.888512,-0.0866 c 0,-0.041 -0.26431,-0.0619 -0.684876,-0.054 l -0.684879,0.0128 0.634764,0.0412 c 0.34912,0.0227 0.657318,0.047 0.684879,0.054 0.02756,0.007 0.05011,-0.0173 0.05011,-0.054 z m 1.22069,0.023 c -0.04524,-0.0183 -0.13544,-0.0194 -0.200454,-0.002 -0.06501,0.0169 -0.028,0.0319 0.08225,0.0333 0.11025,0.001 0.163439,-0.0125 0.118203,-0.0308 z"
         id="path1551" />
    </g>
  </g>
</svg>
