<?xml version="1.0" encoding="UTF-8" standalone="no"?>
<svg
   xmlns:dc="http://purl.org/dc/elements/1.1/"
   xmlns:cc="http://creativecommons.org/ns#"
   xmlns:rdf="http://www.w3.org/1999/02/22-rdf-syntax-ns#"
   xmlns:svg="http://www.w3.org/2000/svg"
   xmlns="http://www.w3.org/2000/svg"
   id="svg36"
   version="1.1"
   viewBox="0 0 210 297"
   height="297mm"
   width="210mm">
  <defs
     id="defs30">
    <clipPath
       id="clipPath945"
       clipPathUnits="userSpaceOnUse">
      <rect
         ry="23.051659"
         y="96.082047"
         x="-11.077777"
         height="70.179596"
         width="232.06921"
         id="rect947"
         style="fill:none;fill-opacity:1;stroke:#000000;stroke-width:1.08893168;stroke-opacity:1" />
    </clipPath>
    <clipPath
       id="clipPath951"
       clipPathUnits="userSpaceOnUse">
      <rect
         ry="15.880055"
         y="165.23714"
         x="-9.8968315"
         height="31.760111"
         width="230.2977"
         id="rect953"
         style="fill:none;fill-opacity:1;stroke:#000000;stroke-width:1.08893168;stroke-opacity:1" />
    </clipPath>
  </defs>
  <metadata
     id="metadata33">
    <rdf:RDF>
      <cc:Work
         rdf:about="">
        <dc:format>image/svg+xml</dc:format>
        <dc:type
           rdf:resource="http://purl.org/dc/dcmitype/StillImage" />
        <dc:title></dc:title>
      </cc:Work>
    </rdf:RDF>
  </metadata>
  <g
     id="layer1">
    <g
       clip-path="url(#clipPath951)"
       transform="matrix(0.23621051,0,0,0.26340745,83.750074,105.23067)"
       id="layer1-7">
      <path
         id="path215"
         d="m -0.5116358,189.01074 c -0.5053668,-1.15065 -0.3727946,-15.95162 0.1493186,-16.67142 0.3516291,-0.48475 1.817978,-0.59706 6.1722449,-0.47277 5.1533913,0.14711 5.8464583,0.27429 7.0977643,1.30238 1.687422,1.38642 2.315602,3.9259 1.474092,5.95916 -0.50208,1.21314 -0.461232,1.84744 0.209298,3.24957 1.062777,2.22234 0.314573,5.01249 -1.718908,6.41001 -1.226155,0.8427 -2.181383,0.9709 -7.2340285,0.9709 -4.8091273,0 -5.8784411,-0.13003 -6.1497813,-0.74783 z m 12.9168238,-1.16569 c 1.629597,-1.42565 1.902935,-3.52501 0.728899,-5.59827 -0.996529,-1.75981 -1.013524,-1.98783 -0.221736,-2.9755 1.067159,-1.33118 1.083473,-2.41553 0.06233,-4.14089 -1.028834,-1.73829 -3.272737,-2.39165 -8.2138196,-2.39165 H 0.7832805 v 8.08145 8.08144 l 5.3928589,-0.1625 c 3.9545156,-0.11915 5.6158836,-0.35761 6.2290856,-0.89408 z m -7.4583048,-1.72683 c -0.7598501,-0.1721 -0.940185,-0.60632 -0.8116637,-1.95444 0.1628888,-1.70859 0.201703,-1.73524 2.733628,-1.87722 2.3317226,-0.13077 2.6290985,-0.0276 3.2271925,1.11927 0.585987,1.12368 0.519765,1.36168 -0.5991804,2.15332 -1.2171686,0.86114 -2.5131531,1.02038 -4.5499764,0.55907 z m 3.4824026,-1.12036 c 0.8637073,-0.40386 0.95219,-0.64195 0.439274,-1.18192 -0.9569313,-1.00742 -3.2153342,-0.87357 -3.2153342,0.19055 0,1.53282 0.9174543,1.86045 2.7760602,0.99137 z m -4.188607,-6.31507 c -0.6781064,-1.54397 0.027619,-2.86782 1.6132094,-3.02613 2.8426501,-0.28384 4.128213,0.2668 4.128213,1.76824 0,1.51955 -0.7649135,1.93266 -3.578453,1.93266 -1.1177671,0 -1.9854976,-0.2707 -2.1629694,-0.67477 z m 4.3886436,-1.21632 c 0,-0.82924 -2.3116527,-1.24241 -3.0995822,-0.554 -0.8624185,0.75352 0.097523,1.56669 1.6626385,1.40844 0.8426431,-0.0852 1.4369437,-0.43858 1.4369437,-0.85444 z m 15.0037766,3.4414 0.147275,-8.87829 h 7.034414 7.034406 v 2.12748 2.12747 l -4.193588,0.13808 c -3.74901,0.12345 -4.193596,0.23623 -4.193596,1.06374 0,0.82409 0.385932,0.92566 3.517212,0.92566 h 3.517202 v 2.36387 2.36386 h -3.517202 c -3.3749,0 -3.517212,0.047 -3.517212,1.16205 0,1.12238 0.143168,1.16676 4.193596,1.30013 l 4.193588,0.13808 v 1.89109 1.89109 l -7.18168,0.132 -7.18169,0.13198 z m 13.303732,6.62546 c 0.161066,-0.9894 -0.04751,-1.05047 -4.035495,-1.18194 -3.979641,-0.13118 -4.223067,-0.20206 -4.535468,-1.32055 -0.678051,-2.42763 -0.159795,-2.83664 3.594242,-2.83664 h 3.454102 v -1.41832 -1.41832 H 31.93668 c -3.713179,0 -4.144343,-0.31852 -3.65413,-2.69949 0.196695,-0.95534 0.56902,-1.05651 4.349775,-1.18193 4.007701,-0.13294 4.134657,-0.17344 4.134657,-1.31908 v -1.18194 l -6.087472,-0.13367 -6.087473,-0.13368 v 8.06811 8.06811 l 6.087473,-0.13367 c 5.811096,-0.12761 6.095187,-0.18105 6.257321,-1.17699 z m 20.148449,1.39788 c 0.01473,-0.45504 1.540046,-4.44406 3.389685,-8.86449 l 3.362968,-8.03714 h 2.358808 2.358808 l 3.450355,8.24936 c 1.897696,4.53715 3.450355,8.52617 3.450355,8.86449 0,0.42909 -0.884118,0.61514 -2.92316,0.61514 -2.761468,0 -2.954471,-0.0784 -3.489068,-1.41832 -0.505846,-1.26781 -0.803544,-1.41832 -2.805475,-1.41832 -1.991528,0 -2.307454,0.15709 -2.852326,1.41832 -0.574267,1.32926 -0.792146,1.41832 -3.470204,1.41832 -2.370841,0 -2.852915,-0.1409 -2.830746,-0.82736 z m 5.30329,-1.5365 c 0.545414,-1.36701 0.685388,-1.41832 3.868841,-1.41832 3.183452,0 3.323426,0.0513 3.868841,1.41832 0.47772,1.19731 0.849889,1.41831 2.388416,1.41831 h 1.822526 l -1.078907,-2.48205 c -0.593399,-1.36514 -2.111184,-4.92866 -3.372856,-7.91896 -2.023069,-4.79491 -2.452566,-5.4529 -3.637365,-5.57254 -1.473824,-0.14881 -1.232718,-0.59083 -5.940612,10.89124 l -2.083858,5.08231 h 1.799537 c 1.512998,0 1.88965,-0.22584 2.365437,-1.41831 z m 2.396296,-5.69263 c 0.556241,-3.62334 2.63082,-3.72261 2.760216,-0.13208 0.05975,1.65654 -0.06454,1.81906 -1.500017,1.96222 -1.546177,0.15421 -1.561423,0.13208 -1.260199,-1.83014 z m 2.013651,0.25574 c 0,-0.39004 -0.2435,-0.70916 -0.541106,-0.70916 -0.297615,0 -0.541115,0.31912 -0.541115,0.70916 0,0.39004 0.2435,0.70915 0.541115,0.70915 0.297606,0 0.541106,-0.31911 0.541106,-0.70915 z m 28.678765,-1.18194 v -8.98269 h 2.586888 2.58689 l 2.07426,3.66263 2.07428,3.66262 2.12373,-3.68778 2.12373,-3.68777 2.54923,0.14334 2.54924,0.14335 0.14721,8.8645 0.14722,8.86449 h -2.98803 -2.98804 l -0.008,-2.95483 c -0.007,-2.68772 -0.0695,-2.84799 -0.68904,-1.7729 -0.52923,0.91843 -1.16633,1.21329 -2.85777,1.32259 -1.98823,0.12849 -2.25355,0.006 -3.06411,-1.41831 l -0.88741,-1.55899 -0.0346,3.19122 -0.0346,3.19122 h -2.705538 -2.705549 v -8.98269 z m 4.328867,4.49134 c 0,-4.17191 0.910571,-4.72881 2.705541,-1.6547 1.49235,2.55583 3.41474,2.64075 4.58082,0.20236 0.44418,-0.9288 1.03539,-1.56572 1.31382,-1.41537 0.27843,0.15035 0.62956,0.006 0.78028,-0.32056 0.15074,-0.32665 0.29328,1.05489 0.31677,3.07008 l 0.0427,3.66399 h 1.89389 1.89387 v -8.03714 -8.03714 h -1.78553 c -1.69531,0 -1.8922,0.19113 -3.8961,3.78218 -1.16082,2.0802 -2.42434,3.78219 -2.80785,3.78219 -0.38351,0 -1.67671,-1.70199 -2.8738,-3.78219 -1.991074,-3.45994 -2.314302,-3.78218 -3.793788,-3.78218 h -1.617288 v 8.03714 8.03714 h 1.623318 1.623327 z m 21.671151,3.66399 c 0.0147,-0.45504 1.5366,-4.44406 3.38192,-8.86449 l 3.35513,-8.03714 h 2.36657 2.36657 l 3.45035,8.24936 c 1.89769,4.53715 3.45035,8.52617 3.45035,8.86449 0,0.42734 -0.87235,0.61514 -2.85746,0.61514 -2.67806,0 -2.89594,-0.0891 -3.4702,-1.41832 -0.54601,-1.26385 -0.85871,-1.41832 -2.87118,-1.41832 -2.01248,0 -2.32517,0.15447 -2.87119,1.41832 -0.57426,1.32926 -0.79213,1.41832 -3.4702,1.41832 -2.37086,0 -2.85291,-0.14089 -2.83066,-0.82736 z m 5.3032,-1.5365 c 0.54299,-1.3609 0.69581,-1.41832 3.77505,-1.41832 3.05557,0 3.24133,0.0679 3.88156,1.41832 0.52689,1.11138 1.00949,1.41831 2.23008,1.41831 0.88985,0 1.5541,-0.25336 1.54934,-0.59096 -0.005,-0.32503 -1.4096,-3.88856 -3.12223,-7.91895 -2.81829,-6.6324 -3.24375,-7.34131 -4.48218,-7.46839 -1.24887,-0.12817 -1.49113,0.16069 -2.77544,3.3094 -0.77392,1.89741 -2.2734,5.52412 -3.33218,8.05936 l -1.92506,4.60954 h 1.81759 c 1.53303,0 1.90617,-0.22204 2.38347,-1.41831 z m 2.03014,-4.17695 c -0.15358,-0.21713 -0.006,-1.17449 0.32942,-2.12749 0.83924,-2.38918 2.28817,-2.32373 3.00265,0.13563 0.29853,1.02759 0.40931,1.98496 0.24618,2.12748 -0.46728,0.40829 -3.26861,0.30211 -3.57825,-0.13562 z m 2.37981,-1.25994 c 0,-0.39004 -0.24349,-0.70916 -0.5411,-0.70916 -0.29761,0 -0.54111,0.31912 -0.54111,0.70916 0,0.39004 0.2435,0.70915 0.54111,0.70915 0.29761,0 0.5411,-0.31911 0.5411,-0.70915 z m 15.69216,-1.18194 v -9.0321 l 2.84082,0.1429 2.84082,0.1429 0.27055,2.26471 0.27056,2.26471 2.16443,-2.40066 2.16444,-2.40066 2.93335,0.13595 c 1.61334,0.0748 3.02289,0.37342 3.13234,0.66366 0.10943,0.29023 -1.02794,1.81063 -2.52753,3.37863 -1.49957,1.56801 -2.7265,3.11149 -2.7265,3.42995 0,0.31845 1.26966,2.50112 2.82148,4.85036 1.5518,2.34926 2.8695,4.55734 2.92821,4.90685 0.079,0.47008 -0.71371,0.63549 -3.04545,0.63549 h -3.15221 l -1.99625,-3.11883 c -1.09793,-1.71535 -2.20068,-2.93865 -2.45056,-2.71844 -0.24987,0.2202 -0.52913,1.57049 -0.62059,3.00063 l -0.16627,2.60025 -2.84082,0.1429 -2.84082,0.1429 z m 4.86998,5.51016 c 0,-1.92913 0.25682,-2.73004 1.08554,-3.3853 1.28977,-1.01983 1.32238,-0.99622 3.79497,2.74749 1.7647,2.67191 2.10961,2.94126 3.93788,3.07514 1.10208,0.0807 2.00379,0.0547 2.00379,-0.0578 0,-0.11249 -1.33925,-2.1547 -2.9761,-4.53827 -1.63686,-2.38356 -2.97611,-4.52717 -2.97611,-4.76359 0,-0.23641 1.2175,-1.70806 2.70555,-3.27032 1.48805,-1.56226 2.70554,-2.95616 2.70554,-3.09757 0,-0.1414 -0.84434,-0.25709 -1.87632,-0.25709 -1.63922,0 -2.20334,0.35432 -4.46414,2.8039 -1.42331,1.54214 -2.88005,2.81864 -3.23721,2.83664 -0.41669,0.021 -0.70753,-0.94135 -0.81167,-2.68571 -0.16044,-2.6876 -0.18223,-2.72013 -1.92088,-2.86659 l -1.7586,-0.14816 v 8.0671 8.0671 h 1.89388 1.89388 z m 19.3693,-4.44642 c -0.088,-4.35542 -0.0821,-8.39763 0.013,-8.98269 0.16913,-1.0405 0.32574,-1.06374 7.1697,-1.06374 h 6.99675 v 2.36387 2.36386 h -4.32887 c -3.9344,0 -4.32886,0.0842 -4.32886,0.92395 0,0.81169 0.44378,0.94093 3.65248,1.06374 l 3.65248,0.13979 v 2.12748 2.12748 l -3.5172,0.23638 c -3.0663,0.20609 -3.51722,0.35762 -3.51722,1.18194 0,1.03196 0.0704,1.04782 5.00526,1.1274 l 3.38193,0.0546 v 2.12748 2.12748 h -7.00974 -7.00974 z m 13.09723,5.81135 c 0,-1.12237 -0.14317,-1.16675 -4.1936,-1.30012 l -4.19359,-0.13808 v -1.89109 -1.8911 l 3.65248,-0.13979 c 3.63541,-0.13914 3.65248,-0.14622 3.65248,-1.51491 0,-1.36868 -0.0171,-1.37577 -3.65248,-1.51491 l -3.65248,-0.1398 v -1.6547 -1.6547 l 4.19359,-0.13808 4.1936,-0.13808 v -1.39844 -1.39843 h -5.95221 -5.95219 v 8.03714 8.03714 h 5.95219 5.95221 z m 9.55959,1.79241 c -0.45087,-0.39392 -0.48046,-15.88197 -0.0323,-16.90236 0.45719,-1.04097 9.29646,-1.06424 11.7885,-0.031 3.63507,1.50711 4.77467,6.00233 2.19953,8.67622 l -1.37568,1.42843 1.64624,2.84932 c 2.33006,4.03287 2.2487,4.29459 -1.33491,4.29459 h -2.98116 l -1.73441,-3.07302 c -0.95393,-1.69017 -1.92564,-3.07303 -2.15938,-3.07303 -0.23373,0 -0.42497,1.38286 -0.42497,3.07303 v 3.07302 h -2.61536 c -1.43845,0 -2.77769,-0.14183 -2.97609,-0.31519 z m 4.50924,-3.70338 c 0,-2.96576 0.0474,-3.07303 1.35782,-3.07303 1.13254,0 1.64559,0.50986 3.09223,3.07303 1.6803,2.97715 1.79857,3.07302 3.7905,3.07302 h 2.05608 l -1.6311,-2.82315 c -1.92201,-3.32661 -1.98044,-3.84569 -0.5595,-4.96924 2.44285,-1.93154 1.82538,-5.72624 -1.19341,-7.33435 -2.33472,-1.24372 -9.84986,-1.38841 -10.37194,-0.19972 -0.44784,1.01967 -0.41859,14.61734 0.0323,15.01128 0.1984,0.17335 1.05065,0.31518 1.89388,0.31518 1.5262,0 1.53314,-0.0139 1.53314,-3.07302 z m 0.21321,-6.57889 c -0.16166,-0.36807 -0.21489,-1.27225 -0.11829,-2.00929 0.15454,-1.17922 0.4237,-1.3579 2.24255,-1.48876 1.1368,-0.0818 2.41517,0.10383 2.84082,0.41248 0.94256,0.68346 1.01017,2.4137 0.12457,3.18746 -0.92073,0.80446 -4.72503,0.7283 -5.08965,-0.10189 z m 4.38621,-1.45826 c 0,-0.72119 -0.41726,-0.98069 -1.75861,-1.09369 -1.58076,-0.13316 -1.7586,-0.0226 -1.7586,1.09369 0,1.11627 0.17784,1.22687 1.7586,1.0937 1.34135,-0.113 1.75861,-0.3725 1.75861,-1.0937 z M -0.5917499,157.96457 c -0.1423493,-0.32502 -0.1955899,-12.50484 -0.118293,-27.06625 l 0.1405173,-26.47529 h 9.7399632 9.7399544 l 2.976097,1.46847 c 3.966944,1.95738 5.878634,4.63459 6.650057,9.31304 0.480417,2.91361 0.424884,4.04515 -0.329598,6.71644 -0.499052,1.76688 -1.516561,3.91034 -2.261138,4.76325 -1.659011,1.9004 -1.659407,1.91709 -0.05376,2.26918 1.897254,0.41605 5.958224,4.59476 6.782417,6.97907 1.766063,5.10909 1.11147,13.1332 -1.37364,16.8382 -1.699161,2.53324 -4.712497,4.30276 -8.735895,5.12997 -4.207729,0.86512 -22.7833114,0.91639 -23.1566492,0.0639 z m 24.6782089,-1.71928 c 5.645418,-1.87807 7.562033,-4.80265 7.957687,-12.14271 0.330814,-6.13735 -0.652632,-9.39096 -3.62303,-11.98622 -1.144263,-0.99976 -2.960916,-2.07163 -4.036996,-2.38191 -2.366118,-0.68227 -2.423299,-1.24675 -0.309887,-3.05892 4.122956,-3.53529 4.261954,-13.50628 0.24639,-17.67583 -2.579393,-2.67831 -6.059402,-3.53712 -15.2854642,-3.77221 L 0.783244,105.01722 v 26.36266 26.36268 l 10.14579,-0.24769 c 8.575189,-0.20935 10.612003,-0.40278 13.157425,-1.24958 z M 4.9768408,154.04336 C 4.7536317,153.83813 4.5710136,148.70611 4.5710136,142.63885 v -11.03137 h 7.3774634 c 8.358489,0 10.936602,0.49425 13.47081,2.58248 2.192992,1.80706 2.960271,4.161 2.933738,9.00046 -0.03185,5.81149 -1.517619,8.57672 -5.373332,10.00057 -2.104683,0.77722 -17.3019876,1.49676 -18.0028522,0.85237 z m 18.0853322,-2.26879 c 2.912545,-1.25518 3.797105,-3.26071 3.864109,-8.76089 0.102514,-8.4146 -2.860464,-10.46065 -15.148519,-10.46065 H 5.6532256 v 10.20894 10.20896 l 7.7108004,-0.16995 c 6.064097,-0.13366 8.135214,-0.35285 9.698147,-1.02641 z M 5.7885044,127.91568 c -1.2170305,-0.15609 -1.2174908,-0.15985 -1.2174908,-9.81511 v -9.65897 l 6.0874724,0.0104 c 4.855657,0.009 6.55652,0.19639 8.40546,0.92959 3.156404,1.25167 4.422099,3.68899 4.422099,8.5155 0,5.98833 -2.507694,9.09318 -7.804677,9.66316 -3.203652,0.34472 -8.494283,0.53482 -9.8928636,0.35546 z m 12.3656556,-2.2783 c 2.899564,-1.47956 3.991857,-3.60943 3.969108,-7.73933 -0.03627,-6.58436 -2.13895,-8.19079 -10.788397,-8.2423 l -5.4110878,-0.0323 -0.1477719,8.69184 -0.1477627,8.69184 5.3628834,-0.22563 c 3.982135,-0.16754 5.826342,-0.46213 7.163028,-1.14419 z m 27.328454,32.17034 c -0.180648,-0.41131 -0.328448,-3.92832 -0.328448,-7.8156 0,-6.16864 0.115062,-7.10634 0.904474,-7.37101 0.832645,-0.27917 6.286128,-0.007 39.949236,1.99319 14.968314,0.88942 15.346884,0.94406 15.664334,2.26082 0.78933,3.27404 1.8028,10.45549 1.5551,11.01946 -0.24356,0.55455 -4.888725,0.66096 -28.853272,0.66096 -25.546528,0 -28.597666,-0.079 -28.891424,-0.74782 z m 56.825906,-1.73423 c -0.17799,-0.84509 -0.58864,-3.23849 -0.91256,-5.3187 -0.32391,-2.0802 -0.75325,-3.92361 -0.95409,-4.09648 -0.20084,-0.17286 -11.200863,-0.97374 -24.444505,-1.77973 -13.243633,-0.806 -25.357705,-1.59326 -26.920159,-1.74947 l -2.840818,-0.28403 v 7.38246 7.38246 h 28.197869 28.197883 z m 14.27055,1.41832 c -0.002,-1.16609 14.31895,-50.50753 15.16905,-52.26501 0.47399,-0.97991 0.82908,-1.0733 3.59495,-0.94554 l 3.06901,0.14177 2.55596,8.7463 c 1.40577,4.81047 4.91135,16.80526 7.79017,26.6551 3.21416,10.99727 5.04065,18.07792 4.73267,18.34701 -0.27585,0.24101 -1.80958,0.37284 -3.40827,0.29296 l -2.90672,-0.14524 -1.85387,-6.26425 -1.85387,-6.26424 h -8.45028 -8.45027 l -1.56758,5.55509 c -2.10543,7.46107 -1.91504,7.20978 -5.46244,7.20978 -2.70542,0 -2.95718,-0.0905 -2.95851,-1.06373 z m 6.97445,-6.38244 1.83246,-6.26424 h 9.60682 9.60682 l 1.18524,3.90037 c 2.83981,9.34528 2.58744,8.8645 4.65335,8.8645 1.02052,0 1.85549,-0.1825 1.85549,-0.40555 0,-0.34114 -5.66645,-19.83496 -13.13972,-45.20355 -1.77682,-6.03152 -1.83431,-6.1375 -3.48973,-6.43332 -0.92574,-0.16542 -1.92714,-0.16901 -2.22538,-0.008 -0.45958,0.24817 -3.70233,10.9192 -13.59041,44.72241 -0.91274,3.12031 -1.79941,6.05955 -1.97037,6.53166 -0.26899,0.74286 -0.0313,0.8383 1.76607,0.70916 l 2.0769,-0.1492 z m 3.50927,-10.27023 c -0.24184,-0.55064 3.8004,-16.02824 6.88689,-26.36968 0.97003,-3.25011 1.8464,-2.13277 3.7081,4.72773 0.97023,3.57535 2.59048,9.52695 3.60056,13.2258 1.01008,3.69884 1.83651,7.26237 1.83651,7.91895 v 1.19377 h -7.86306 c -6.42707,0 -7.91893,-0.1272 -8.169,-0.69657 z m 14.41959,-2.25825 c -0.22897,-0.84509 -1.67541,-6.21698 -3.21434,-11.93752 -1.53892,-5.72056 -2.86337,-10.60133 -2.94321,-10.84616 -0.13212,-0.40514 -6.8575,23.14095 -6.8452,23.9656 0.003,0.19502 3.02338,0.35458 6.71216,0.35458 h 6.70687 z m 31.50429,-7.06789 0.13971,-27.08997 2.64576,-0.1468 c 1.45517,-0.0807 2.91548,0.0889 3.24514,0.3769 0.32966,0.28804 3.1643,7.09658 6.2992,15.1301 l 5.69983,14.60642 4.82333,-12.38307 c 2.65283,-6.81067 5.33725,-13.55316 5.96537,-14.9833 l 1.14204,-2.60025 2.89505,-0.14545 c 1.94913,-0.0979 3.04166,0.0565 3.34379,0.47277 0.50983,0.70235 0.64193,51.90745 0.13689,53.05737 -0.24312,0.55355 -1.08389,0.74782 -3.23634,0.74782 -2.63317,0 -2.93928,-0.10923 -3.24001,-1.15611 -0.18266,-0.63588 -0.24818,-8.91545 -0.14559,-18.39908 0.10259,-9.48361 0.15906,-17.20734 0.12548,-17.16383 -0.0335,0.0435 -2.20434,5.39781 -4.8239,11.89843 -2.61957,6.50064 -4.99603,12.08527 -5.28102,12.4103 -0.28499,0.32503 -1.10885,0.59097 -1.8308,0.59097 -1.58268,0 -1.38095,0.38941 -6.9958,-13.50484 l -4.27511,-10.579 -0.27056,17.83339 -0.27055,17.83339 -3.11582,0.1419 -3.11582,0.14191 z m 5.05757,23.85539 c 0.2116,-1.23288 0.24963,-10.26024 0.0845,-20.06081 -0.24236,-14.38409 -0.16648,-17.77434 0.39364,-17.58655 0.38163,0.12795 3.19179,6.39487 6.24481,13.92649 3.05302,7.53162 5.74459,13.79841 5.98126,13.92621 0.70952,0.38314 1.09007,-0.42647 6.72381,-14.30438 2.97831,-7.33666 5.65863,-13.34687 5.95623,-13.35601 0.3503,-0.0108 0.59089,6.98559 0.68226,19.84002 L 204.2519,157.61 h 1.88801 1.88801 v -26.00252 -26.00252 h -2.09472 -2.09472 l -4.22252,10.75559 c -2.32239,5.91557 -5.0198,12.77669 -5.99423,15.24693 -1.09726,2.78159 -2.09123,4.54954 -2.61106,4.6442 -0.46164,0.084 -0.83993,0.084 -0.84065,0 -7.2e-4,-0.084 -2.65,-6.96079 -5.88728,-15.28159 l -5.88598,-15.12874 -2.22934,-0.14538 -2.22936,-0.14538 v 26.0297 26.02971 h 1.86073 c 1.80451,0 1.87235,-0.0677 2.24547,-2.24161 z M 80.055683,139.8639 c -3.273712,-0.33645 -12.161421,-1.19064 -19.750475,-1.8982 -7.589045,-0.70755 -14.102645,-1.4963 -14.474657,-1.75275 -1.011415,-0.69725 -0.95648,-13.52392 0.05938,-13.86452 0.903387,-0.30288 41.479184,5.7609 42.049594,6.28404 0.441189,0.40461 1.581539,7.9069 1.584034,10.42119 0.0018,1.80426 0.112254,1.79481 -9.467876,0.81024 z m 8.107485,-4.59243 c -0.588731,-6.52461 -0.31612,-6.24031 -6.848317,-7.14211 -3.073418,-0.4243 -11.919016,-1.72716 -19.656864,-2.89525 -7.737857,-1.16808 -14.373202,-2.12666 -14.745215,-2.13016 -0.507889,-0.005 -0.676384,1.57508 -0.676384,6.34203 v 6.34842 l 2.840818,0.28842 c 14.646761,1.48704 35.717976,3.46332 37.393946,3.50719 l 2.086602,0.0546 z m 4.06746,-9.6068 c -1.934467,-0.34757 -13.122652,-2.34333 -24.862631,-4.43502 -11.739979,-2.09168 -21.548641,-3.98061 -21.797011,-4.19761 -0.24837,-0.21701 -0.382894,-3.03645 -0.298922,-6.26541 l 0.15266,-5.87083 2.164433,0.0257 c 1.874441,0.0222 48.314474,10.35385 48.920651,10.88347 0.279469,0.24417 1.645376,8.08634 1.661331,9.53828 0.01363,1.24301 -0.620391,1.27731 -5.940511,0.32143 z m 4.83602,-1.26698 c -0.01869,-0.58506 -0.323053,-2.6363 -0.676385,-4.55832 l -0.642422,-3.49458 -15.421601,-3.47425 c -8.481881,-1.91084 -19.195835,-4.32942 -23.808792,-5.37466 -4.612949,-1.04522 -8.813303,-1.89827 -9.334127,-1.89566 -0.846446,0.004 -0.946933,0.57976 -0.946933,5.42341 v 5.41867 l 2.029154,0.45281 c 1.116036,0.24905 5.925145,1.13645 10.686896,1.972 4.761761,0.83556 14.866969,2.6394 22.456014,4.00855 7.589055,1.36914 14.224401,2.51104 14.745216,2.53757 0.646685,0.0329 0.936171,-0.28909 0.91298,-1.01554 z"
         style="fill:#000000;stroke-width:0.50578815" />
    </g>
    <rect
       ry="6.0135555"
       y="126.91072"
       x="72.571426"
       height="35"
       width="65"
       id="rect108"
       style="fill:none;fill-opacity:1;stroke:#000000;stroke-width:0.26458332;stroke-opacity:1" />
    <ellipse
       ry="2.271791"
       rx="2.2049735"
       cy="145.05727"
       cx="77.975883"
       id="path915"
       style="fill:none;fill-opacity:1;stroke:#000000;stroke-width:0.26458332;stroke-opacity:1" />
    <g
       clip-path="url(#clipPath945)"
       id="g941"
       transform="matrix(0.23124378,0,0,0.25020872,84.312973,107.5106)">
      <path
         style="fill:#000000;stroke-width:0.50578815"
         d="m -0.5116358,189.01074 c -0.5053668,-1.15065 -0.3727946,-15.95162 0.1493186,-16.67142 0.3516291,-0.48475 1.817978,-0.59706 6.1722449,-0.47277 5.1533913,0.14711 5.8464583,0.27429 7.0977643,1.30238 1.687422,1.38642 2.315602,3.9259 1.474092,5.95916 -0.50208,1.21314 -0.461232,1.84744 0.209298,3.24957 1.062777,2.22234 0.314573,5.01249 -1.718908,6.41001 -1.226155,0.8427 -2.181383,0.9709 -7.2340285,0.9709 -4.8091273,0 -5.8784411,-0.13003 -6.1497813,-0.74783 z m 12.9168238,-1.16569 c 1.629597,-1.42565 1.902935,-3.52501 0.728899,-5.59827 -0.996529,-1.75981 -1.013524,-1.98783 -0.221736,-2.9755 1.067159,-1.33118 1.083473,-2.41553 0.06233,-4.14089 -1.028834,-1.73829 -3.272737,-2.39165 -8.2138196,-2.39165 H 0.7832805 v 8.08145 8.08144 l 5.3928589,-0.1625 c 3.9545156,-0.11915 5.6158836,-0.35761 6.2290856,-0.89408 z m -7.4583048,-1.72683 c -0.7598501,-0.1721 -0.940185,-0.60632 -0.8116637,-1.95444 0.1628888,-1.70859 0.201703,-1.73524 2.733628,-1.87722 2.3317226,-0.13077 2.6290985,-0.0276 3.2271925,1.11927 0.585987,1.12368 0.519765,1.36168 -0.5991804,2.15332 -1.2171686,0.86114 -2.5131531,1.02038 -4.5499764,0.55907 z m 3.4824026,-1.12036 c 0.8637073,-0.40386 0.95219,-0.64195 0.439274,-1.18192 -0.9569313,-1.00742 -3.2153342,-0.87357 -3.2153342,0.19055 0,1.53282 0.9174543,1.86045 2.7760602,0.99137 z m -4.188607,-6.31507 c -0.6781064,-1.54397 0.027619,-2.86782 1.6132094,-3.02613 2.8426501,-0.28384 4.128213,0.2668 4.128213,1.76824 0,1.51955 -0.7649135,1.93266 -3.578453,1.93266 -1.1177671,0 -1.9854976,-0.2707 -2.1629694,-0.67477 z m 4.3886436,-1.21632 c 0,-0.82924 -2.3116527,-1.24241 -3.0995822,-0.554 -0.8624185,0.75352 0.097523,1.56669 1.6626385,1.40844 0.8426431,-0.0852 1.4369437,-0.43858 1.4369437,-0.85444 z m 15.0037766,3.4414 0.147275,-8.87829 h 7.034414 7.034406 v 2.12748 2.12747 l -4.193588,0.13808 c -3.74901,0.12345 -4.193596,0.23623 -4.193596,1.06374 0,0.82409 0.385932,0.92566 3.517212,0.92566 h 3.517202 v 2.36387 2.36386 h -3.517202 c -3.3749,0 -3.517212,0.047 -3.517212,1.16205 0,1.12238 0.143168,1.16676 4.193596,1.30013 l 4.193588,0.13808 v 1.89109 1.89109 l -7.18168,0.132 -7.18169,0.13198 z m 13.303732,6.62546 c 0.161066,-0.9894 -0.04751,-1.05047 -4.035495,-1.18194 -3.979641,-0.13118 -4.223067,-0.20206 -4.535468,-1.32055 -0.678051,-2.42763 -0.159795,-2.83664 3.594242,-2.83664 h 3.454102 v -1.41832 -1.41832 H 31.93668 c -3.713179,0 -4.144343,-0.31852 -3.65413,-2.69949 0.196695,-0.95534 0.56902,-1.05651 4.349775,-1.18193 4.007701,-0.13294 4.134657,-0.17344 4.134657,-1.31908 v -1.18194 l -6.087472,-0.13367 -6.087473,-0.13368 v 8.06811 8.06811 l 6.087473,-0.13367 c 5.811096,-0.12761 6.095187,-0.18105 6.257321,-1.17699 z m 20.148449,1.39788 c 0.01473,-0.45504 1.540046,-4.44406 3.389685,-8.86449 l 3.362968,-8.03714 h 2.358808 2.358808 l 3.450355,8.24936 c 1.897696,4.53715 3.450355,8.52617 3.450355,8.86449 0,0.42909 -0.884118,0.61514 -2.92316,0.61514 -2.761468,0 -2.954471,-0.0784 -3.489068,-1.41832 -0.505846,-1.26781 -0.803544,-1.41832 -2.805475,-1.41832 -1.991528,0 -2.307454,0.15709 -2.852326,1.41832 -0.574267,1.32926 -0.792146,1.41832 -3.470204,1.41832 -2.370841,0 -2.852915,-0.1409 -2.830746,-0.82736 z m 5.30329,-1.5365 c 0.545414,-1.36701 0.685388,-1.41832 3.868841,-1.41832 3.183452,0 3.323426,0.0513 3.868841,1.41832 0.47772,1.19731 0.849889,1.41831 2.388416,1.41831 h 1.822526 l -1.078907,-2.48205 c -0.593399,-1.36514 -2.111184,-4.92866 -3.372856,-7.91896 -2.023069,-4.79491 -2.452566,-5.4529 -3.637365,-5.57254 -1.473824,-0.14881 -1.232718,-0.59083 -5.940612,10.89124 l -2.083858,5.08231 h 1.799537 c 1.512998,0 1.88965,-0.22584 2.365437,-1.41831 z m 2.396296,-5.69263 c 0.556241,-3.62334 2.63082,-3.72261 2.760216,-0.13208 0.05975,1.65654 -0.06454,1.81906 -1.500017,1.96222 -1.546177,0.15421 -1.561423,0.13208 -1.260199,-1.83014 z m 2.013651,0.25574 c 0,-0.39004 -0.2435,-0.70916 -0.541106,-0.70916 -0.297615,0 -0.541115,0.31912 -0.541115,0.70916 0,0.39004 0.2435,0.70915 0.541115,0.70915 0.297606,0 0.541106,-0.31911 0.541106,-0.70915 z m 28.678765,-1.18194 v -8.98269 h 2.586888 2.58689 l 2.07426,3.66263 2.07428,3.66262 2.12373,-3.68778 2.12373,-3.68777 2.54923,0.14334 2.54924,0.14335 0.14721,8.8645 0.14722,8.86449 h -2.98803 -2.98804 l -0.008,-2.95483 c -0.007,-2.68772 -0.0695,-2.84799 -0.68904,-1.7729 -0.52923,0.91843 -1.16633,1.21329 -2.85777,1.32259 -1.98823,0.12849 -2.25355,0.006 -3.06411,-1.41831 l -0.88741,-1.55899 -0.0346,3.19122 -0.0346,3.19122 h -2.705538 -2.705549 v -8.98269 z m 4.328867,4.49134 c 0,-4.17191 0.910571,-4.72881 2.705541,-1.6547 1.49235,2.55583 3.41474,2.64075 4.58082,0.20236 0.44418,-0.9288 1.03539,-1.56572 1.31382,-1.41537 0.27843,0.15035 0.62956,0.006 0.78028,-0.32056 0.15074,-0.32665 0.29328,1.05489 0.31677,3.07008 l 0.0427,3.66399 h 1.89389 1.89387 v -8.03714 -8.03714 h -1.78553 c -1.69531,0 -1.8922,0.19113 -3.8961,3.78218 -1.16082,2.0802 -2.42434,3.78219 -2.80785,3.78219 -0.38351,0 -1.67671,-1.70199 -2.8738,-3.78219 -1.991074,-3.45994 -2.314302,-3.78218 -3.793788,-3.78218 h -1.617288 v 8.03714 8.03714 h 1.623318 1.623327 z m 21.671151,3.66399 c 0.0147,-0.45504 1.5366,-4.44406 3.38192,-8.86449 l 3.35513,-8.03714 h 2.36657 2.36657 l 3.45035,8.24936 c 1.89769,4.53715 3.45035,8.52617 3.45035,8.86449 0,0.42734 -0.87235,0.61514 -2.85746,0.61514 -2.67806,0 -2.89594,-0.0891 -3.4702,-1.41832 -0.54601,-1.26385 -0.85871,-1.41832 -2.87118,-1.41832 -2.01248,0 -2.32517,0.15447 -2.87119,1.41832 -0.57426,1.32926 -0.79213,1.41832 -3.4702,1.41832 -2.37086,0 -2.85291,-0.14089 -2.83066,-0.82736 z m 5.3032,-1.5365 c 0.54299,-1.3609 0.69581,-1.41832 3.77505,-1.41832 3.05557,0 3.24133,0.0679 3.88156,1.41832 0.52689,1.11138 1.00949,1.41831 2.23008,1.41831 0.88985,0 1.5541,-0.25336 1.54934,-0.59096 -0.005,-0.32503 -1.4096,-3.88856 -3.12223,-7.91895 -2.81829,-6.6324 -3.24375,-7.34131 -4.48218,-7.46839 -1.24887,-0.12817 -1.49113,0.16069 -2.77544,3.3094 -0.77392,1.89741 -2.2734,5.52412 -3.33218,8.05936 l -1.92506,4.60954 h 1.81759 c 1.53303,0 1.90617,-0.22204 2.38347,-1.41831 z m 2.03014,-4.17695 c -0.15358,-0.21713 -0.006,-1.17449 0.32942,-2.12749 0.83924,-2.38918 2.28817,-2.32373 3.00265,0.13563 0.29853,1.02759 0.40931,1.98496 0.24618,2.12748 -0.46728,0.40829 -3.26861,0.30211 -3.57825,-0.13562 z m 2.37981,-1.25994 c 0,-0.39004 -0.24349,-0.70916 -0.5411,-0.70916 -0.29761,0 -0.54111,0.31912 -0.54111,0.70916 0,0.39004 0.2435,0.70915 0.54111,0.70915 0.29761,0 0.5411,-0.31911 0.5411,-0.70915 z m 15.69216,-1.18194 v -9.0321 l 2.84082,0.1429 2.84082,0.1429 0.27055,2.26471 0.27056,2.26471 2.16443,-2.40066 2.16444,-2.40066 2.93335,0.13595 c 1.61334,0.0748 3.02289,0.37342 3.13234,0.66366 0.10943,0.29023 -1.02794,1.81063 -2.52753,3.37863 -1.49957,1.56801 -2.7265,3.11149 -2.7265,3.42995 0,0.31845 1.26966,2.50112 2.82148,4.85036 1.5518,2.34926 2.8695,4.55734 2.92821,4.90685 0.079,0.47008 -0.71371,0.63549 -3.04545,0.63549 h -3.15221 l -1.99625,-3.11883 c -1.09793,-1.71535 -2.20068,-2.93865 -2.45056,-2.71844 -0.24987,0.2202 -0.52913,1.57049 -0.62059,3.00063 l -0.16627,2.60025 -2.84082,0.1429 -2.84082,0.1429 z m 4.86998,5.51016 c 0,-1.92913 0.25682,-2.73004 1.08554,-3.3853 1.28977,-1.01983 1.32238,-0.99622 3.79497,2.74749 1.7647,2.67191 2.10961,2.94126 3.93788,3.07514 1.10208,0.0807 2.00379,0.0547 2.00379,-0.0578 0,-0.11249 -1.33925,-2.1547 -2.9761,-4.53827 -1.63686,-2.38356 -2.97611,-4.52717 -2.97611,-4.76359 0,-0.23641 1.2175,-1.70806 2.70555,-3.27032 1.48805,-1.56226 2.70554,-2.95616 2.70554,-3.09757 0,-0.1414 -0.84434,-0.25709 -1.87632,-0.25709 -1.63922,0 -2.20334,0.35432 -4.46414,2.8039 -1.42331,1.54214 -2.88005,2.81864 -3.23721,2.83664 -0.41669,0.021 -0.70753,-0.94135 -0.81167,-2.68571 -0.16044,-2.6876 -0.18223,-2.72013 -1.92088,-2.86659 l -1.7586,-0.14816 v 8.0671 8.0671 h 1.89388 1.89388 z m 19.3693,-4.44642 c -0.088,-4.35542 -0.0821,-8.39763 0.013,-8.98269 0.16913,-1.0405 0.32574,-1.06374 7.1697,-1.06374 h 6.99675 v 2.36387 2.36386 h -4.32887 c -3.9344,0 -4.32886,0.0842 -4.32886,0.92395 0,0.81169 0.44378,0.94093 3.65248,1.06374 l 3.65248,0.13979 v 2.12748 2.12748 l -3.5172,0.23638 c -3.0663,0.20609 -3.51722,0.35762 -3.51722,1.18194 0,1.03196 0.0704,1.04782 5.00526,1.1274 l 3.38193,0.0546 v 2.12748 2.12748 h -7.00974 -7.00974 z m 13.09723,5.81135 c 0,-1.12237 -0.14317,-1.16675 -4.1936,-1.30012 l -4.19359,-0.13808 v -1.89109 -1.8911 l 3.65248,-0.13979 c 3.63541,-0.13914 3.65248,-0.14622 3.65248,-1.51491 0,-1.36868 -0.0171,-1.37577 -3.65248,-1.51491 l -3.65248,-0.1398 v -1.6547 -1.6547 l 4.19359,-0.13808 4.1936,-0.13808 v -1.39844 -1.39843 h -5.95221 -5.95219 v 8.03714 8.03714 h 5.95219 5.95221 z m 9.55959,1.79241 c -0.45087,-0.39392 -0.48046,-15.88197 -0.0323,-16.90236 0.45719,-1.04097 9.29646,-1.06424 11.7885,-0.031 3.63507,1.50711 4.77467,6.00233 2.19953,8.67622 l -1.37568,1.42843 1.64624,2.84932 c 2.33006,4.03287 2.2487,4.29459 -1.33491,4.29459 h -2.98116 l -1.73441,-3.07302 c -0.95393,-1.69017 -1.92564,-3.07303 -2.15938,-3.07303 -0.23373,0 -0.42497,1.38286 -0.42497,3.07303 v 3.07302 h -2.61536 c -1.43845,0 -2.77769,-0.14183 -2.97609,-0.31519 z m 4.50924,-3.70338 c 0,-2.96576 0.0474,-3.07303 1.35782,-3.07303 1.13254,0 1.64559,0.50986 3.09223,3.07303 1.6803,2.97715 1.79857,3.07302 3.7905,3.07302 h 2.05608 l -1.6311,-2.82315 c -1.92201,-3.32661 -1.98044,-3.84569 -0.5595,-4.96924 2.44285,-1.93154 1.82538,-5.72624 -1.19341,-7.33435 -2.33472,-1.24372 -9.84986,-1.38841 -10.37194,-0.19972 -0.44784,1.01967 -0.41859,14.61734 0.0323,15.01128 0.1984,0.17335 1.05065,0.31518 1.89388,0.31518 1.5262,0 1.53314,-0.0139 1.53314,-3.07302 z m 0.21321,-6.57889 c -0.16166,-0.36807 -0.21489,-1.27225 -0.11829,-2.00929 0.15454,-1.17922 0.4237,-1.3579 2.24255,-1.48876 1.1368,-0.0818 2.41517,0.10383 2.84082,0.41248 0.94256,0.68346 1.01017,2.4137 0.12457,3.18746 -0.92073,0.80446 -4.72503,0.7283 -5.08965,-0.10189 z m 4.38621,-1.45826 c 0,-0.72119 -0.41726,-0.98069 -1.75861,-1.09369 -1.58076,-0.13316 -1.7586,-0.0226 -1.7586,1.09369 0,1.11627 0.17784,1.22687 1.7586,1.0937 1.34135,-0.113 1.75861,-0.3725 1.75861,-1.0937 z M -0.5917499,157.96457 c -0.1423493,-0.32502 -0.1955899,-12.50484 -0.118293,-27.06625 l 0.1405173,-26.47529 h 9.7399632 9.7399544 l 2.976097,1.46847 c 3.966944,1.95738 5.878634,4.63459 6.650057,9.31304 0.480417,2.91361 0.424884,4.04515 -0.329598,6.71644 -0.499052,1.76688 -1.516561,3.91034 -2.261138,4.76325 -1.659011,1.9004 -1.659407,1.91709 -0.05376,2.26918 1.897254,0.41605 5.958224,4.59476 6.782417,6.97907 1.766063,5.10909 1.11147,13.1332 -1.37364,16.8382 -1.699161,2.53324 -4.712497,4.30276 -8.735895,5.12997 -4.207729,0.86512 -22.7833114,0.91639 -23.1566492,0.0639 z m 24.6782089,-1.71928 c 5.645418,-1.87807 7.562033,-4.80265 7.957687,-12.14271 0.330814,-6.13735 -0.652632,-9.39096 -3.62303,-11.98622 -1.144263,-0.99976 -2.960916,-2.07163 -4.036996,-2.38191 -2.366118,-0.68227 -2.423299,-1.24675 -0.309887,-3.05892 4.122956,-3.53529 4.261954,-13.50628 0.24639,-17.67583 -2.579393,-2.67831 -6.059402,-3.53712 -15.2854642,-3.77221 L 0.783244,105.01722 v 26.36266 26.36268 l 10.14579,-0.24769 c 8.575189,-0.20935 10.612003,-0.40278 13.157425,-1.24958 z M 4.9768408,154.04336 C 4.7536317,153.83813 4.5710136,148.70611 4.5710136,142.63885 v -11.03137 h 7.3774634 c 8.358489,0 10.936602,0.49425 13.47081,2.58248 2.192992,1.80706 2.960271,4.161 2.933738,9.00046 -0.03185,5.81149 -1.517619,8.57672 -5.373332,10.00057 -2.104683,0.77722 -17.3019876,1.49676 -18.0028522,0.85237 z m 18.0853322,-2.26879 c 2.912545,-1.25518 3.797105,-3.26071 3.864109,-8.76089 0.102514,-8.4146 -2.860464,-10.46065 -15.148519,-10.46065 H 5.6532256 v 10.20894 10.20896 l 7.7108004,-0.16995 c 6.064097,-0.13366 8.135214,-0.35285 9.698147,-1.02641 z M 5.7885044,127.91568 c -1.2170305,-0.15609 -1.2174908,-0.15985 -1.2174908,-9.81511 v -9.65897 l 6.0874724,0.0104 c 4.855657,0.009 6.55652,0.19639 8.40546,0.92959 3.156404,1.25167 4.422099,3.68899 4.422099,8.5155 0,5.98833 -2.507694,9.09318 -7.804677,9.66316 -3.203652,0.34472 -8.494283,0.53482 -9.8928636,0.35546 z m 12.3656556,-2.2783 c 2.899564,-1.47956 3.991857,-3.60943 3.969108,-7.73933 -0.03627,-6.58436 -2.13895,-8.19079 -10.788397,-8.2423 l -5.4110878,-0.0323 -0.1477719,8.69184 -0.1477627,8.69184 5.3628834,-0.22563 c 3.982135,-0.16754 5.826342,-0.46213 7.163028,-1.14419 z m 27.328454,32.17034 c -0.180648,-0.41131 -0.328448,-3.92832 -0.328448,-7.8156 0,-6.16864 0.115062,-7.10634 0.904474,-7.37101 0.832645,-0.27917 6.286128,-0.007 39.949236,1.99319 14.968314,0.88942 15.346884,0.94406 15.664334,2.26082 0.78933,3.27404 1.8028,10.45549 1.5551,11.01946 -0.24356,0.55455 -4.888725,0.66096 -28.853272,0.66096 -25.546528,0 -28.597666,-0.079 -28.891424,-0.74782 z m 56.825906,-1.73423 c -0.17799,-0.84509 -0.58864,-3.23849 -0.91256,-5.3187 -0.32391,-2.0802 -0.75325,-3.92361 -0.95409,-4.09648 -0.20084,-0.17286 -11.200863,-0.97374 -24.444505,-1.77973 -13.243633,-0.806 -25.357705,-1.59326 -26.920159,-1.74947 l -2.840818,-0.28403 v 7.38246 7.38246 h 28.197869 28.197883 z m 14.27055,1.41832 c -0.002,-1.16609 14.31895,-50.50753 15.16905,-52.26501 0.47399,-0.97991 0.82908,-1.0733 3.59495,-0.94554 l 3.06901,0.14177 2.55596,8.7463 c 1.40577,4.81047 4.91135,16.80526 7.79017,26.6551 3.21416,10.99727 5.04065,18.07792 4.73267,18.34701 -0.27585,0.24101 -1.80958,0.37284 -3.40827,0.29296 l -2.90672,-0.14524 -1.85387,-6.26425 -1.85387,-6.26424 h -8.45028 -8.45027 l -1.56758,5.55509 c -2.10543,7.46107 -1.91504,7.20978 -5.46244,7.20978 -2.70542,0 -2.95718,-0.0905 -2.95851,-1.06373 z m 6.97445,-6.38244 1.83246,-6.26424 h 9.60682 9.60682 l 1.18524,3.90037 c 2.83981,9.34528 2.58744,8.8645 4.65335,8.8645 1.02052,0 1.85549,-0.1825 1.85549,-0.40555 0,-0.34114 -5.66645,-19.83496 -13.13972,-45.20355 -1.77682,-6.03152 -1.83431,-6.1375 -3.48973,-6.43332 -0.92574,-0.16542 -1.92714,-0.16901 -2.22538,-0.008 -0.45958,0.24817 -3.70233,10.9192 -13.59041,44.72241 -0.91274,3.12031 -1.79941,6.05955 -1.97037,6.53166 -0.26899,0.74286 -0.0313,0.8383 1.76607,0.70916 l 2.0769,-0.1492 z m 3.50927,-10.27023 c -0.24184,-0.55064 3.8004,-16.02824 6.88689,-26.36968 0.97003,-3.25011 1.8464,-2.13277 3.7081,4.72773 0.97023,3.57535 2.59048,9.52695 3.60056,13.2258 1.01008,3.69884 1.83651,7.26237 1.83651,7.91895 v 1.19377 h -7.86306 c -6.42707,0 -7.91893,-0.1272 -8.169,-0.69657 z m 14.41959,-2.25825 c -0.22897,-0.84509 -1.67541,-6.21698 -3.21434,-11.93752 -1.53892,-5.72056 -2.86337,-10.60133 -2.94321,-10.84616 -0.13212,-0.40514 -6.8575,23.14095 -6.8452,23.9656 0.003,0.19502 3.02338,0.35458 6.71216,0.35458 h 6.70687 z m 31.50429,-7.06789 0.13971,-27.08997 2.64576,-0.1468 c 1.45517,-0.0807 2.91548,0.0889 3.24514,0.3769 0.32966,0.28804 3.1643,7.09658 6.2992,15.1301 l 5.69983,14.60642 4.82333,-12.38307 c 2.65283,-6.81067 5.33725,-13.55316 5.96537,-14.9833 l 1.14204,-2.60025 2.89505,-0.14545 c 1.94913,-0.0979 3.04166,0.0565 3.34379,0.47277 0.50983,0.70235 0.64193,51.90745 0.13689,53.05737 -0.24312,0.55355 -1.08389,0.74782 -3.23634,0.74782 -2.63317,0 -2.93928,-0.10923 -3.24001,-1.15611 -0.18266,-0.63588 -0.24818,-8.91545 -0.14559,-18.39908 0.10259,-9.48361 0.15906,-17.20734 0.12548,-17.16383 -0.0335,0.0435 -2.20434,5.39781 -4.8239,11.89843 -2.61957,6.50064 -4.99603,12.08527 -5.28102,12.4103 -0.28499,0.32503 -1.10885,0.59097 -1.8308,0.59097 -1.58268,0 -1.38095,0.38941 -6.9958,-13.50484 l -4.27511,-10.579 -0.27056,17.83339 -0.27055,17.83339 -3.11582,0.1419 -3.11582,0.14191 z m 5.05757,23.85539 c 0.2116,-1.23288 0.24963,-10.26024 0.0845,-20.06081 -0.24236,-14.38409 -0.16648,-17.77434 0.39364,-17.58655 0.38163,0.12795 3.19179,6.39487 6.24481,13.92649 3.05302,7.53162 5.74459,13.79841 5.98126,13.92621 0.70952,0.38314 1.09007,-0.42647 6.72381,-14.30438 2.97831,-7.33666 5.65863,-13.34687 5.95623,-13.35601 0.3503,-0.0108 0.59089,6.98559 0.68226,19.84002 L 204.2519,157.61 h 1.88801 1.88801 v -26.00252 -26.00252 h -2.09472 -2.09472 l -4.22252,10.75559 c -2.32239,5.91557 -5.0198,12.77669 -5.99423,15.24693 -1.09726,2.78159 -2.09123,4.54954 -2.61106,4.6442 -0.46164,0.084 -0.83993,0.084 -0.84065,0 -7.2e-4,-0.084 -2.65,-6.96079 -5.88728,-15.28159 l -5.88598,-15.12874 -2.22934,-0.14538 -2.22936,-0.14538 v 26.0297 26.02971 h 1.86073 c 1.80451,0 1.87235,-0.0677 2.24547,-2.24161 z M 80.055683,139.8639 c -3.273712,-0.33645 -12.161421,-1.19064 -19.750475,-1.8982 -7.589045,-0.70755 -14.102645,-1.4963 -14.474657,-1.75275 -1.011415,-0.69725 -0.95648,-13.52392 0.05938,-13.86452 0.903387,-0.30288 41.479184,5.7609 42.049594,6.28404 0.441189,0.40461 1.581539,7.9069 1.584034,10.42119 0.0018,1.80426 0.112254,1.79481 -9.467876,0.81024 z m 8.107485,-4.59243 c -0.588731,-6.52461 -0.31612,-6.24031 -6.848317,-7.14211 -3.073418,-0.4243 -11.919016,-1.72716 -19.656864,-2.89525 -7.737857,-1.16808 -14.373202,-2.12666 -14.745215,-2.13016 -0.507889,-0.005 -0.676384,1.57508 -0.676384,6.34203 v 6.34842 l 2.840818,0.28842 c 14.646761,1.48704 35.717976,3.46332 37.393946,3.50719 l 2.086602,0.0546 z m 4.06746,-9.6068 c -1.934467,-0.34757 -13.122652,-2.34333 -24.862631,-4.43502 -11.739979,-2.09168 -21.548641,-3.98061 -21.797011,-4.19761 -0.24837,-0.21701 -0.382894,-3.03645 -0.298922,-6.26541 l 0.15266,-5.87083 2.164433,0.0257 c 1.874441,0.0222 48.314474,10.35385 48.920651,10.88347 0.279469,0.24417 1.645376,8.08634 1.661331,9.53828 0.01363,1.24301 -0.620391,1.27731 -5.940511,0.32143 z m 4.83602,-1.26698 c -0.01869,-0.58506 -0.323053,-2.6363 -0.676385,-4.55832 l -0.642422,-3.49458 -15.421601,-3.47425 c -8.481881,-1.91084 -19.195835,-4.32942 -23.808792,-5.37466 -4.612949,-1.04522 -8.813303,-1.89827 -9.334127,-1.89566 -0.846446,0.004 -0.946933,0.57976 -0.946933,5.42341 v 5.41867 l 2.029154,0.45281 c 1.116036,0.24905 5.925145,1.13645 10.686896,1.972 4.761761,0.83556 14.866969,2.6394 22.456014,4.00855 7.589055,1.36914 14.224401,2.51104 14.745216,2.53757 0.646685,0.0329 0.936171,-0.28909 0.91298,-1.01554 z"
         id="path939" />
    </g>
  </g>
</svg>
